<?xml version="1.0" encoding="utf-8" standalone="no"?>
<!DOCTYPE svg PUBLIC "-//W3C//DTD SVG 1.1//EN"
  "http://www.w3.org/Graphics/SVG/1.1/DTD/svg11.dtd">
<!-- Created with matplotlib (http://matplotlib.org/) -->
<svg height="132pt" version="1.1" viewBox="0 0 300 132" width="300pt" xmlns="http://www.w3.org/2000/svg" xmlns:xlink="http://www.w3.org/1999/xlink">
 <defs>
  <style type="text/css">
*{stroke-linecap:butt;stroke-linejoin:round;}
  </style>
 </defs>
 <g id="figure_1">
  <g id="patch_1">
   <path d="
M0 132.533
L300.217 132.533
L300.217 0
L0 0
z
" style="fill:#ffffff;"/>
  </g>
  <g id="axes_1">
   <g id="patch_2">
    <path d="
M23.118 117.983
L145.624 117.983
L145.624 14.3026
L23.118 14.3026
z
" style="fill:#ffffff;"/>
   </g>
   <g id="line2d_1">
    <path clip-path="url(#p6755c98d0e)" d="
M23.118 66.1426
L23.7311 30.3125
L24.099 18.6463
L24.3443 16.6912
L24.4669 17.5432
L24.7122 22.7455
L25.08 37.9848
L26.429 106.896
L26.6742 110.83
L26.7969 111.141
L26.9195 110.344
L27.1647 105.569
L27.5326 91.6537
L28.8815 28.9992
L29.1268 25.459
L29.2494 25.1957
L29.3721 25.9413
L29.6173 30.3242
L29.9852 43.03
L31.3341 99.995
L31.5794 103.181
L31.702 103.402
L31.8246 102.705
L32.0699 98.6828
L32.4378 87.0815
L33.7867 35.2899
L34.032 32.4234
L34.1546 32.2389
L34.2772 32.8896
L34.5225 36.5808
L34.8904 47.1734
L36.2393 94.261
L36.4845 96.8399
L36.6072 96.9924
L36.7298 96.3853
L36.9751 92.9981
L37.3429 83.3268
L38.6919 40.5165
L38.9371 38.1967
L39.0598 38.0718
L39.1824 38.638
L39.4276 41.7458
L39.7955 50.5759
L41.1444 89.497
L41.3897 91.5834
L41.5123 91.6844
L41.635 91.1567
L41.8802 88.3054
L42.2481 80.2436
L43.597 44.8587
L43.8423 42.9825
L43.9649 42.9021
L44.0875 43.3936
L44.3328 46.0094
L44.7007 53.3696
L46.0496 85.5393
L46.2949 87.2262
L46.4175 87.2889
L46.5401 86.8313
L46.7854 84.4317
L47.1533 77.7122
L48.5022 48.466
L48.7474 46.9495
L48.8701 46.9019
L48.9927 47.3278
L49.238 49.5288
L49.6058 55.6633
L50.9548 82.2514
L51.2 83.6145
L51.3227 83.6491
L51.4453 83.2531
L51.6905 81.2344
L52.0584 75.634
L53.4073 51.4626
L53.6526 50.2376
L53.7752 50.214
L53.8979 50.5822
L54.1431 52.4336
L54.511 57.5461
L55.8599 79.5203
L56.1052 80.621
L56.2278 80.6352
L56.3504 80.2931
L56.5957 78.5953
L56.9636 73.9282
L58.3125 53.9518
L58.5578 52.9629
L58.6804 52.9565
L58.803 53.2742
L59.0483 54.8312
L59.4162 59.0916
L60.7651 77.2516
L61.0103 78.1399
L61.133 78.1398
L61.3782 77.2649
L61.7461 74.0171
L62.4819 63.7926
L63.095 56.8079
L63.3403 55.4871
L63.4629 55.2217
L63.5856 55.2272
L63.8308 56.0337
L64.1987 59.0019
L64.9345 68.3129
L65.5476 74.6542
L65.7929 75.8469
L65.9155 76.0835
L66.0381 76.0736
L66.2834 75.3302
L66.6513 72.6176
L67.387 64.1386
L68.0002 58.3816
L68.2455 57.3046
L68.3681 57.0938
L68.4907 57.1073
L68.736 57.7923
L69.1039 60.2712
L69.8396 67.9925
L70.4528 73.2191
L70.698 74.1915
L70.8207 74.3793
L70.9433 74.3629
L71.1885 73.7317
L71.5564 71.4664
L72.2922 64.4352
L72.9054 59.6903
L73.1506 58.8124
L73.3959 58.6638
L73.6411 59.2453
L74.009 61.3153
L74.7448 67.7181
L75.2353 71.3986
L75.6032 72.8182
L75.8484 72.9466
L76.0937 72.411
L76.4616 70.5195
L77.1974 64.689
L77.6879 61.3467
L78.0558 60.0632
L78.301 59.9524
L78.5463 60.4457
L78.9142 62.1741
L79.7726 68.3547
L80.2631 71.0332
L80.5084 71.6789
L80.7536 71.7742
L80.9989 71.3199
L81.3668 69.7407
L82.2252 64.1141
L82.7157 61.6836
L82.9609 61.1008
L83.2062 61.0192
L83.4514 61.4374
L83.8193 62.8804
L85.4135 70.7339
L85.6588 70.8035
L85.904 70.4186
L86.2719 69.1001
L87.7435 62.1483
L87.9887 61.8791
L88.234 62.0296
L88.4792 62.5772
L88.8471 64.0017
L90.0734 69.5218
L90.3187 69.9501
L90.5639 70
L90.8092 69.674
L91.1771 68.5734
L92.6486 62.8267
L92.8939 62.6107
L93.1391 62.7421
L93.3844 63.2018
L93.8749 64.8765
L94.8559 68.6672
L95.2238 69.2999
L95.4691 69.3349
L95.7143 69.0589
L96.0822 68.1403
L97.5538 63.39
L97.799 63.2168
L98.0443 63.3314
L98.2896 63.7172
L98.7801 65.1107
L99.7611 68.244
L100.129 68.7607
L100.374 68.7844
L100.62 68.5508
L100.987 67.7842
L102.459 63.8577
L102.704 63.719
L102.949 63.8186
L103.317 64.3778
L103.93 66.0189
L104.666 67.8916
L105.034 68.3134
L105.279 68.3287
L105.525 68.1312
L105.893 67.4914
L107.364 64.246
L107.609 64.1351
L107.855 64.2215
L108.223 64.6896
L108.836 66.0522
L109.571 67.5982
L109.939 67.9425
L110.185 67.9516
L110.552 67.6405
L111.043 66.7605
L112.024 64.8147
L112.392 64.5037
L112.637 64.497
L113.005 64.7823
L113.496 65.585
L114.477 67.3539
L114.844 67.6349
L115.212 67.5864
L115.58 67.228
L116.193 66.1971
L116.929 65.0376
L117.297 64.7838
L117.665 64.83
L118.033 65.1578
L118.646 66.0971
L119.382 67.1506
L119.75 67.3798
L120.118 67.336
L120.485 67.0361
L121.221 65.9932
L121.834 65.2231
L122.202 65.0161
L122.57 65.0576
L122.938 65.3319
L123.674 66.2819
L124.287 66.9813
L124.655 67.1683
L125.023 67.1289
L125.513 66.7568
L126.985 65.2427
L127.353 65.2105
L127.721 65.3801
L128.334 65.9811
L129.192 66.8405
L129.683 67.0022
L130.05 66.9055
L130.541 66.5345
L131.767 65.442
L132.258 65.3714
L132.748 65.5934
L133.729 66.4666
L134.342 66.8229
L134.833 66.8163
L135.324 66.5568
L136.795 65.5229
L137.286 65.5301
L137.776 65.7673
L139.248 66.7071
L139.738 66.6994
L140.351 66.405
L141.578 65.659
L142.068 65.6148
L142.681 65.8345
L144.275 66.6269
L144.766 66.5717
L145.502 66.2159
L145.624 66.1426
L145.624 66.1426" style="fill:none;stroke:#377eb8;stroke-linecap:square;stroke-width:0.75;"/>
   </g>
   <g id="line2d_2">
    <path clip-path="url(#p6755c98d0e)" d="
M23.118 14.3026
L25.6932 19.1917
L28.2684 23.6196
L30.9662 27.8113
L33.6641 31.5897
L36.3619 34.9957
L39.1824 38.1981
L42.0028 41.0712
L44.9459 43.7548
L48.0117 46.2452
L51.2 48.5418
L54.511 50.6466
L57.9446 52.5639
L61.6235 54.3557
L65.425 55.9592
L69.4717 57.4271
L73.8864 58.7883
L78.6689 60.0241
L83.8193 61.1238
L89.5829 62.1217
L95.9596 62.9964
L103.195 63.7607
L111.533 64.4143
L121.466 64.9631
L133.607 65.4032
L145.624 65.6769
L145.624 65.6769" style="fill:none;stroke:#e41a1c;stroke-dasharray:2.000000,2.000000;stroke-dashoffset:0.0;stroke-linecap:round;stroke-width:0.75;"/>
   </g>
   <g id="line2d_3">
    <path clip-path="url(#p6755c98d0e)" d="
M23.118 117.983
L25.6932 113.094
L28.2684 108.666
L30.9662 104.474
L33.6641 100.695
L36.3619 97.2895
L39.1824 94.0871
L42.0028 91.214
L44.9459 88.5304
L48.0117 86.04
L51.2 83.7434
L54.511 81.6386
L57.9446 79.7213
L61.6235 77.9295
L65.425 76.326
L69.4717 74.858
L73.8864 73.4968
L78.6689 72.2611
L83.8193 71.1614
L89.5829 70.1634
L95.9596 69.2888
L103.195 68.5245
L111.533 67.8709
L121.466 67.322
L133.607 66.882
L145.624 66.6083
L145.624 66.6083" style="fill:none;stroke:#e41a1c;stroke-dasharray:2.000000,2.000000;stroke-dashoffset:0.0;stroke-linecap:round;stroke-width:0.75;"/>
   </g>
   <g id="patch_3">
    <path d="
M23.118 14.3026
L145.624 14.3026" style="fill:none;stroke:#000000;stroke-linecap:square;stroke-linejoin:miter;stroke-width:0.5;"/>
   </g>
   <g id="patch_4">
    <path d="
M145.624 117.983
L145.624 14.3026" style="fill:none;stroke:#000000;stroke-linecap:square;stroke-linejoin:miter;stroke-width:0.5;"/>
   </g>
   <g id="patch_5">
    <path d="
M23.118 117.983
L145.624 117.983" style="fill:none;stroke:#000000;stroke-linecap:square;stroke-linejoin:miter;stroke-width:0.5;"/>
   </g>
   <g id="patch_6">
    <path d="
M23.118 117.983
L23.118 14.3026" style="fill:none;stroke:#000000;stroke-linecap:square;stroke-linejoin:miter;stroke-width:0.5;"/>
   </g>
   <g id="matplotlib.axis_1">
    <g id="xtick_1">
     <g id="line2d_4">
      <defs>
       <path d="
M0 0
L0 -4" id="m93b0483c22" style="stroke:#000000;stroke-width:0.5;"/>
      </defs>
      <g>
       <use style="stroke:#000000;stroke-width:0.5;" x="23.1179831005" xlink:href="#m93b0483c22" y="117.982583817"/>
      </g>
     </g>
     <g id="line2d_5">
      <defs>
       <path d="
M0 0
L0 4" id="m741efc42ff" style="stroke:#000000;stroke-width:0.5;"/>
      </defs>
      <g>
       <use style="stroke:#000000;stroke-width:0.5;" x="23.1179831005" xlink:href="#m741efc42ff" y="14.3025838165"/>
      </g>
     </g>
     <g id="text_1">
      <!-- $0$ -->
      <defs>
       <path d="
M26.2969 69
C10.7969 69 2.90625 56.6875 2.90625 32.4531
C2.90625 20.7188 5 10.625 8.5 5.71875
C12 0.796875 17.5938 -2 23.7969 -2
C38.9062 -2 46.5 11.0156 46.5 36.6562
C46.5 58.5781 40 69 26.2969 69
M24.5 65.5
C34.2031 65.5 38.0938 55.6875 38.0938 31.6406
C38.0938 10.3281 34.2969 1.5 25.0938 1.5
C15.4062 1.5 11.2969 11.625 11.2969 36.0625
C11.2969 57.1875 15 65.5 24.5 65.5" id="URW_Palladio_L_Roman-48"/>
      </defs>
      <g transform="translate(21.1254550806 126.685167633)scale(0.08 -0.08)">
       <use transform="scale(0.996264009963)" xlink:href="#URW_Palladio_L_Roman-48"/>
      </g>
     </g>
    </g>
    <g id="xtick_2">
     <g id="line2d_6">
      <g>
       <use style="stroke:#000000;stroke-width:0.5;" x="47.6192558278" xlink:href="#m93b0483c22" y="117.982583817"/>
      </g>
     </g>
     <g id="line2d_7">
      <g>
       <use style="stroke:#000000;stroke-width:0.5;" x="47.6192558278" xlink:href="#m741efc42ff" y="14.3025838165"/>
      </g>
     </g>
     <g id="text_2">
      <!-- $5$ -->
      <defs>
       <path d="
M12.7031 60.5781
C25.5938 60.5781 31.2031 60.5781 43.2031 60.5781
L43.7031 60.875
C43.5 62.6719 43.5 63.4688 43.5 64.7812
C43.5 66.2031 43.5 67 43.7031 68.7969
L43.2031 69
C35.7031 69 31.2031 69 25.7969 69
C20.2969 69 15.9062 69 8.40625 69
L7.90625 68.7969
C8 62.6719 8.09375 58.2656 8.09375 55.0469
C8.09375 46.5156 7.79688 36.875 7.5 32.4531
L9.5 31.8438
C14.2031 36.5938 16.9062 38 21.7969 38
C31.4062 38 37.4062 31.1406 37.4062 20.25
C37.4062 9.0625 31 2.5 20.0938 2.5
C14.7031 2.5 9.70312 4.32812 8.29688 6.9375
L3.70312 15.2031
L1.29688 13.7969
C3.59375 8.0625 4.79688 4.84375 6.20312 0.421875
C9 -1.10938 13 -2 17.2969 -2
C24 -2 31.0938 0.921875 36.5938 5.75
C42.7031 11.1875 45.9062 18.0312 45.9062 25.4688
C45.9062 36.8594 37.7969 44.9062 26.4062 44.9062
C21.5938 44.9062 18 43.6094 11.7969 39.9062
z
" id="URW_Palladio_L_Roman-53"/>
      </defs>
      <g transform="translate(45.6267278078 126.685167633)scale(0.08 -0.08)">
       <use transform="scale(0.996264009963)" xlink:href="#URW_Palladio_L_Roman-53"/>
      </g>
     </g>
    </g>
    <g id="xtick_3">
     <g id="line2d_8">
      <g>
       <use style="stroke:#000000;stroke-width:0.5;" x="72.120528555" xlink:href="#m93b0483c22" y="117.982583817"/>
      </g>
     </g>
     <g id="line2d_9">
      <g>
       <use style="stroke:#000000;stroke-width:0.5;" x="72.120528555" xlink:href="#m741efc42ff" y="14.3025838165"/>
      </g>
     </g>
     <g id="text_3">
      <!-- $10$ -->
      <defs>
       <path d="
M6.70312 56
L7.70312 56
L20.5938 61.4062
C20.7031 61.5 20.7969 61.5 20.9062 61.5
C21.5 61.5 21.7031 60.6094 21.7031 58.2031
L21.7031 9.53125
C21.7031 4.29688 20.5938 3.20312 15.2031 3.20312
L9.59375 3.20312
L9.59375 0
C25 0 25 0 26.0938 0
C27.4062 0 29.5938 0 33 0
C34.2031 0 37.7031 0 41.7969 0
L41.7969 3.20312
L36.5938 3.20312
C31.0938 3.20312 30.0938 4.29688 30.0938 9.53125
L30.0938 69.0156
L28.7031 69.5156
C22.2031 66.1406 15.0938 63.1875 6 60.0156
z
" id="URW_Palladio_L_Roman-49"/>
      </defs>
      <g transform="translate(68.1354725152 126.685167633)scale(0.08 -0.08)">
       <use transform="scale(0.996264009963)" xlink:href="#URW_Palladio_L_Roman-49"/>
       <use transform="translate(49.8132004981 0.0)scale(0.996264009963)" xlink:href="#URW_Palladio_L_Roman-48"/>
      </g>
     </g>
    </g>
    <g id="xtick_4">
     <g id="line2d_10">
      <g>
       <use style="stroke:#000000;stroke-width:0.5;" x="96.6218012823" xlink:href="#m93b0483c22" y="117.982583817"/>
      </g>
     </g>
     <g id="line2d_11">
      <g>
       <use style="stroke:#000000;stroke-width:0.5;" x="96.6218012823" xlink:href="#m741efc42ff" y="14.3025838165"/>
      </g>
     </g>
     <g id="text_4">
      <!-- $15$ -->
      <g transform="translate(92.6367452425 126.685167633)scale(0.08 -0.08)">
       <use transform="scale(0.996264009963)" xlink:href="#URW_Palladio_L_Roman-49"/>
       <use transform="translate(49.8132004981 0.0)scale(0.996264009963)" xlink:href="#URW_Palladio_L_Roman-53"/>
      </g>
     </g>
    </g>
    <g id="xtick_5">
     <g id="line2d_12">
      <g>
       <use style="stroke:#000000;stroke-width:0.5;" x="121.12307401" xlink:href="#m93b0483c22" y="117.982583817"/>
      </g>
     </g>
     <g id="line2d_13">
      <g>
       <use style="stroke:#000000;stroke-width:0.5;" x="121.12307401" xlink:href="#m741efc42ff" y="14.3025838165"/>
      </g>
     </g>
     <g id="text_5">
      <!-- $20$ -->
      <defs>
       <path d="
M1.59375 2.51562
L1.59375 0
C20.2969 0 20.2969 0.203125 23.9062 0.203125
C27.5 0.203125 27.5 0 46.7969 0
C46.5938 1.95312 46.5938 2.90625 46.5938 4.20312
C46.5938 5.4375 46.5938 6.35938 46.7969 8.42188
C35.2969 8.42188 30.7031 8.42188 12.2031 8.42188
L30.4062 27.5156
C40.0938 37.7188 43.0938 43.1719 43.0938 50.5938
C43.0938 61.9688 35.2969 69 22.5938 69
C15.4062 69 10.5 67 5.59375 62.0156
L3.90625 48.4219
L6.79688 48.4219
L8.09375 53.0156
C9.70312 58.7969 13.2969 61.2969 20 61.2969
C28.5938 61.2969 34.0938 55.8906 34.0938 47.4219
C34.0938 39.9375 29.9062 32.5625 18.5938 20.5781
z
" id="URW_Palladio_L_Roman-50"/>
      </defs>
      <g transform="translate(117.13801797 126.685167633)scale(0.08 -0.08)">
       <use transform="scale(0.996264009963)" xlink:href="#URW_Palladio_L_Roman-50"/>
       <use transform="translate(49.8132004981 0.0)scale(0.996264009963)" xlink:href="#URW_Palladio_L_Roman-48"/>
      </g>
     </g>
    </g>
    <g id="xtick_6">
     <g id="line2d_14">
      <g>
       <use style="stroke:#000000;stroke-width:0.5;" x="145.624346737" xlink:href="#m93b0483c22" y="117.982583817"/>
      </g>
     </g>
     <g id="line2d_15">
      <g>
       <use style="stroke:#000000;stroke-width:0.5;" x="145.624346737" xlink:href="#m741efc42ff" y="14.3025838165"/>
      </g>
     </g>
     <g id="text_6">
      <!-- $25$ -->
      <g transform="translate(141.639290697 126.685167633)scale(0.08 -0.08)">
       <use transform="scale(0.996264009963)" xlink:href="#URW_Palladio_L_Roman-50"/>
       <use transform="translate(49.8132004981 0.0)scale(0.996264009963)" xlink:href="#URW_Palladio_L_Roman-53"/>
      </g>
     </g>
    </g>
   </g>
   <g id="matplotlib.axis_2">
    <g id="ytick_1">
     <g id="line2d_16">
      <defs>
       <path d="
M0 0
L4 0" id="m728421d6d4" style="stroke:#000000;stroke-width:0.5;"/>
      </defs>
      <g>
       <use style="stroke:#000000;stroke-width:0.5;" x="23.1179831005" xlink:href="#m728421d6d4" y="117.982583817"/>
      </g>
     </g>
     <g id="line2d_17">
      <defs>
       <path d="
M0 0
L-4 0" id="mcb0005524f" style="stroke:#000000;stroke-width:0.5;"/>
      </defs>
      <g>
       <use style="stroke:#000000;stroke-width:0.5;" x="145.624346737" xlink:href="#mcb0005524f" y="117.982583817"/>
      </g>
     </g>
     <g id="text_7">
      <!-- $-1.0$ -->
      <defs>
       <path d="
M65.9062 23
C67.5938 23 69.4062 23 69.4062 25
C69.4062 27 67.5938 27 65.9062 27
L11.7969 27
C10.0938 27 8.29688 27 8.29688 25
C8.29688 23 10.0938 23 11.7969 23
z
" id="CMSY10-0"/>
       <path d="
M12.4062 11.625
C9.40625 11.625 6.70312 8.8125 6.70312 5.8125
C6.70312 2.79688 9.40625 0 12.2969 0
C15.5 0 18.2969 2.70312 18.2969 5.8125
C18.2969 8.8125 15.5 11.625 12.4062 11.625" id="URW_Palladio_L_Roman-46"/>
      </defs>
      <g transform="translate(3.6 119.710114366)scale(0.08 -0.08)">
       <use transform="scale(1.03810691596)" xlink:href="#CMSY10-0"/>
       <use transform="translate(81.9416963 0.0)scale(0.996264009963)" xlink:href="#URW_Palladio_L_Roman-49"/>
       <use transform="translate(131.754896798 0.0)scale(0.996264009963)" xlink:href="#URW_Palladio_L_Roman-46"/>
       <use transform="translate(156.661497047 0.0)scale(0.996264009963)" xlink:href="#URW_Palladio_L_Roman-48"/>
      </g>
     </g>
    </g>
    <g id="ytick_2">
     <g id="line2d_18">
      <g>
       <use style="stroke:#000000;stroke-width:0.5;" x="23.1179831005" xlink:href="#m728421d6d4" y="92.0625838165"/>
      </g>
     </g>
     <g id="line2d_19">
      <g>
       <use style="stroke:#000000;stroke-width:0.5;" x="145.624346737" xlink:href="#mcb0005524f" y="92.0625838165"/>
      </g>
     </g>
     <g id="text_8">
      <!-- $-0.5$ -->
      <g transform="translate(3.6 93.790114366)scale(0.08 -0.08)">
       <use transform="scale(1.03810691596)" xlink:href="#CMSY10-0"/>
       <use transform="translate(81.9416963 0.0)scale(0.996264009963)" xlink:href="#URW_Palladio_L_Roman-48"/>
       <use transform="translate(131.754896798 0.0)scale(0.996264009963)" xlink:href="#URW_Palladio_L_Roman-46"/>
       <use transform="translate(156.661497047 0.0)scale(0.996264009963)" xlink:href="#URW_Palladio_L_Roman-53"/>
      </g>
     </g>
    </g>
    <g id="ytick_3">
     <g id="line2d_20">
      <g>
       <use style="stroke:#000000;stroke-width:0.5;" x="23.1179831005" xlink:href="#m728421d6d4" y="66.1425838165"/>
      </g>
     </g>
     <g id="line2d_21">
      <g>
       <use style="stroke:#000000;stroke-width:0.5;" x="145.624346737" xlink:href="#mcb0005524f" y="66.1425838165"/>
      </g>
     </g>
     <g id="text_9">
      <!-- $0.0$ -->
      <g transform="translate(10.1553430009 67.870114366)scale(0.08 -0.08)">
       <use transform="scale(0.996264009963)" xlink:href="#URW_Palladio_L_Roman-48"/>
       <use transform="translate(49.8132004981 0.0)scale(0.996264009963)" xlink:href="#URW_Palladio_L_Roman-46"/>
       <use transform="translate(74.7198007472 0.0)scale(0.996264009963)" xlink:href="#URW_Palladio_L_Roman-48"/>
      </g>
     </g>
    </g>
    <g id="ytick_4">
     <g id="line2d_22">
      <g>
       <use style="stroke:#000000;stroke-width:0.5;" x="23.1179831005" xlink:href="#m728421d6d4" y="40.2225838165"/>
      </g>
     </g>
     <g id="line2d_23">
      <g>
       <use style="stroke:#000000;stroke-width:0.5;" x="145.624346737" xlink:href="#mcb0005524f" y="40.2225838165"/>
      </g>
     </g>
     <g id="text_10">
      <!-- $0.5$ -->
      <g transform="translate(10.1553430009 41.950114366)scale(0.08 -0.08)">
       <use transform="scale(0.996264009963)" xlink:href="#URW_Palladio_L_Roman-48"/>
       <use transform="translate(49.8132004981 0.0)scale(0.996264009963)" xlink:href="#URW_Palladio_L_Roman-46"/>
       <use transform="translate(74.7198007472 0.0)scale(0.996264009963)" xlink:href="#URW_Palladio_L_Roman-53"/>
      </g>
     </g>
    </g>
    <g id="ytick_5">
     <g id="line2d_24">
      <g>
       <use style="stroke:#000000;stroke-width:0.5;" x="23.1179831005" xlink:href="#m728421d6d4" y="14.3025838165"/>
      </g>
     </g>
     <g id="line2d_25">
      <g>
       <use style="stroke:#000000;stroke-width:0.5;" x="145.624346737" xlink:href="#mcb0005524f" y="14.3025838165"/>
      </g>
     </g>
     <g id="text_11">
      <!-- $1.0$ -->
      <g transform="translate(10.1553430009 16.030114366)scale(0.08 -0.08)">
       <use transform="scale(0.996264009963)" xlink:href="#URW_Palladio_L_Roman-49"/>
       <use transform="translate(49.8132004981 0.0)scale(0.996264009963)" xlink:href="#URW_Palladio_L_Roman-46"/>
       <use transform="translate(74.7198007472 0.0)scale(0.996264009963)" xlink:href="#URW_Palladio_L_Roman-48"/>
      </g>
     </g>
    </g>
   </g>
   <g id="text_12">
    <!-- $$e^{-d t}$$ -->
    <defs>
     <path d="
M12.5 38.5156
L6.90625 10.4844
C6.79688 9.78125 6.70312 9.60938 6.40625 8.40625
C5.79688 5.64062 5.59375 4.14062 5.59375 2.96875
C5.59375 0.484375 6.70312 -1 8.59375 -1
C12.0938 -1 15.5938 0.96875 23.4062 7.23438
L24.9062 8.40625
L26.5 9.70312
L25.5 11.4844
L21 8.40625
C18.0938 6.4375 16.0938 5.4375 15 5.4375
C14.0938 5.4375 13.5938 6.23438 13.5938 7.40625
C13.5938 9.98438 15 18.0156 17.9062 32.375
L19.2031 38.5156
L29.9062 38.5156
L31 43.5
C27.2031 43 23.7969 43 20 43
C21.5938 52.3125 22.7031 57.1719 24.5 62.5156
L23.4062 64.0156
C21.4062 62.8281 18.7031 61.625 15.5938 60.4375
L13.0938 43.5
C8.70312 41.4062 6.09375 40.3125 4.29688 39.8125
L4.09375 38.5156
z
" id="URW_Palladio_L_Italic-116"/>
     <path d="
M48.2969 72.1719
L47.0938 73.2656
C41.9062 70.6875 38.2969 69.7812 31.0938 69.0938
L30.7031 67
L35.5 67
C37.9062 67 38.9062 66.2812 38.9062 64.5781
C38.9062 63.7656 38.7969 62.8594 38.7031 62.1562
L35.9062 46.6094
C32.9062 47.5 30.2031 48 27.7031 48
C20.7969 48 11.4062 40.8438 6.79688 32.1875
C3.70312 26.4375 1.70312 16.9844 1.70312 8.64062
C1.70312 2.1875 3.20312 -1 6.09375 -1
C8.79688 -1 12.5 0.6875 15.9062 3.35938
C21.2969 7.75 24.5938 11.6094 31.2969 21.6562
L29 12.5312
C27.9062 8.125 27.4062 4.92188 27.4062 2.29688
C27.4062 0.203125 28.2969 -1 30 -1
C31.7031 -1 34.0938 0.203125 37.5 2.73438
L45.5938 8.82812
L44.5938 10.7188
L40.2031 7.64062
C38.7969 6.65625 37.2031 5.95312 36.2969 5.95312
C35.5 5.95312 34.9062 6.84375 34.9062 8.25
C34.9062 9.0625 35 9.95312 35.7031 12.8438
z

M33.7031 34.9844
C31.9062 26.2344 27 17.4844 20.7969 11.6094
C17.2969 8.34375 13.2969 5.95312 11.4062 5.95312
C9.79688 5.95312 8.90625 7.34375 8.90625 9.82812
C8.90625 22.3594 13.5 37.8594 18.4062 41.625
C19.7031 42.625 21.5938 43.125 24.2969 43.125
C28.7031 43.125 31.5938 42.5156 34.9062 40.8438
z
" id="URW_Palladio_L_Italic-100"/>
     <path d="
M32.7969 11.125
L30.4062 9.4375
C25.0938 5.67188 20.2969 3.67188 16.7031 3.67188
C12 3.67188 9.09375 7.35938 9.09375 13.3281
C9.09375 15.7969 9.40625 18.4844 9.90625 21.375
L18.0938 23.3438
C19.7969 23.75 22.5 24.75 25 25.8438
C33.5 29.5156 37.4062 34.0938 37.4062 40.25
C37.4062 44.9062 34 48 29 48
C22.5 48 11.4062 41.1406 7.5 34.7812
C4.5 29.8125 1.5 17.9844 1.5 11.3125
C1.5 3.5625 5.90625 -1 13.0938 -1
C18.7969 -1 24.4062 1.78125 33.5938 9.23438
z

M11.2969 27.3125
C13 34.1719 15 38.4531 17.9062 41.0312
C19.7031 42.625 22.7969 43.8125 25.2031 43.8125
C28.0938 43.8125 30 41.8281 30 38.6562
C30 34.2656 26.5 29.6094 21.2969 27.1094
C18.5 25.7344 14.9062 24.6406 10.4062 23.6406
z
" id="URW_Palladio_L_Italic-101"/>
    </defs>
    <g transform="translate(104.62522967 60.612514366)scale(0.08 -0.08)">
     <use transform="scale(0.996264009963)" xlink:href="#URW_Palladio_L_Italic-101"/>
     <use transform="translate(40.9464872937 41.1457066518)scale(0.788955479452)" xlink:href="#CMSY10-0"/>
     <use transform="translate(104.168146307 41.1457066518)scale(0.75715517493)" xlink:href="#URW_Palladio_L_Italic-100"/>
     <use transform="translate(143.918754986 41.1457066518)scale(0.75715517493)" xlink:href="#URW_Palladio_L_Italic-116"/>
    </g>
   </g>
   <g id="text_13">
    <!-- Cycle-to-cycle variability -->
    <defs>
     <path d="
M53.9062 43
L53.9062 45.8125
C47.9062 45.8125 46.0938 45.8125 44.5 45.8125
C42.9062 45.8125 41.0938 45.8125 35.0938 45.8125
L35.0938 43
L39.2031 43
C40.7969 43 41.5938 42.0938 41.5938 40.4844
C41.5938 38.8906 40.9062 36.2031 39.7031 33.1875
L35.5 22.5781
C34.2969 19.6719 33.0938 16.875 29.2969 8.57812
L17.4062 37.3906
C16.7969 38.7812 16.5 40.0938 16.5 41.1875
C16.5 42.2969 17.4062 43 19 43
L23.9062 43
L23.9062 45.8125
C14.0938 45.8125 14.0938 45.8125 12.2031 45.8125
C10.2969 45.8125 5.5 45.8125 0.59375 45.8125
L0.59375 43
L4 43
C5.5 42.7969 6 42.2031 7.09375 39.7031
L24.2969 -0.5
L29.2969 -0.5
C29.9062 1.1875 30.9062 3.78125 30.9062 3.98438
C32 6.98438 33.2969 10.375 33.4062 10.375
L45.2031 36.3125
C47.4062 41.0156 48.7969 42.7969 50.7969 43
z
" id="URW_Palladio_L_Roman-118"/>
     <path d="
M2.29688 66.5
L7.90625 66.5
C9.70312 66.5 10.4062 65.3906 10.4062 62.375
L10.4062 10.1719
C10.4062 3.8125 10.0938 3.10938 6.70312 3.10938
L2.09375 3.10938
L2.09375 0
C12.0938 0 12.0938 0.203125 14.5938 0.203125
C17.0938 0.203125 17.0938 0 27.0938 0
L27.0938 3.10938
L22.5 3.10938
C19.0938 3.10938 18.7969 3.8125 18.7969 10.1562
L18.7969 72.2031
L17.9062 73.0156
C13.5 71.3125 10.2031 70.5 2.29688 69.2969
z
" id="URW_Palladio_L_Roman-108"/>
     <path d="
M29.7031 8.90625
C27.5 12.7188 26.4062 15.0312 24.5938 19.9375
L18.2031 36.7656
C17.5938 38.4688 17.2031 39.9688 17.2031 40.9844
C17.2031 42.375 18.2969 43.1875 20.5938 43.1875
L24.4062 43.1875
L24.4062 46
C14.7031 46 14.7031 46 12.7969 46
C10.9062 46 10.9062 46 1.20312 46
L1.20312 43.3906
L3 43.1875
C5.5 42.8906 6.70312 41.7812 8.20312 38.2969
L19.0938 12.1094
C21.9062 5.3125 22.9062 2.90625 24.7031 -2.09375
L22.4062 -8.1875
C19.2031 -16.5938 15.2969 -21.2812 11.5 -21.2812
C9.90625 -21.2812 8.09375 -20.4844 6.40625 -18.9844
L5.09375 -18.9844
L2.70312 -26.5
C4.59375 -27.5 6.20312 -28 8.09375 -28
C14.7969 -28 19.0938 -24.4062 22.9062 -15.7031
L43.2031 31.0938
C47.2031 40.1875 49.0938 42.8906 51.5938 43.1875
L54.4062 43.3906
L54.4062 46
C46.5 46 46.5 46 44.9062 46
C43.2969 46 43.2969 46 35.4062 46
L35.4062 43.3906
L38 43.1875
C40.7969 42.9844 42.2031 42.0938 42.2031 40.6875
C42.2031 40 42 39.0938 41.5938 38.0938
z
" id="URW_Palladio_L_Roman-121"/>
     <path d="
M27.9062 47
C13.2969 47 3.20312 36.6719 3.20312 21.75
C3.20312 7.60938 12.0938 -2 25 -2
C40.4062 -2 51.4062 8.71875 51.4062 23.75
C51.4062 37.2812 41.5938 47 27.9062 47
M26.0938 43.6875
C35.2969 43.6875 42.0938 33.6719 42.0938 20.0469
C42.0938 8.51562 37 1.29688 28.9062 1.29688
C19.0938 1.29688 12.5 10.9219 12.5 25.1562
C12.5 37.1719 17.2969 43.6875 26.0938 43.6875" id="URW_Palladio_L_Roman-111"/>
     <path d="
M43.7031 6.98438
L42.4062 7.98438
C36 4.20312 33.7031 3.3125 29.4062 3.3125
C22.9062 3.3125 17.5 6.21875 14.7031 11.1094
C12.7969 14.3906 12.0938 17.2031 11.9062 23
L26.5 23
C33.4062 23 37.7031 23 44.5938 24.125
C44.7031 25.5312 44.7969 26.4531 44.7969 27.6719
C44.7969 39.375 37.4062 47 26.2031 47
C22.5 47 18.2031 45.6875 14.0938 43.2812
C5.90625 38.5781 2.59375 32.3594 2.59375 21.9375
C2.59375 15.625 4.09375 10.2188 6.79688 6.40625
C10.7969 1.10938 17.5 -2 25 -2
C28.7031 -2 32.4062 -1.20312 36.5 0.578125
C39.2031 1.6875 41.2969 2.98438 41.7031 3.59375
z

M35.9062 26.4062
C30.7031 26.4062 28.2969 26.4062 24.7031 26.4062
C20.0938 26.4062 17.5 26.4062 12.0938 26.9062
C12.0938 31.6719 12.5 33.8906 13.7969 36.5156
C15.9062 40.9688 20.2031 43.6875 25 43.6875
C28.2969 43.6875 30.9062 42.3594 32.7031 39.5938
C34.9062 36.2344 35.5938 33.2656 35.9062 26.4062" id="URW_Palladio_L_Roman-101"/>
     <path d="
M2.29688 40.0781
L6 40.0781
C10 40.0781 10.4062 39.375 10.4062 32.7188
L10.4062 10.0469
C10.4062 3.70312 10.0938 3 6.70312 3
L2.09375 3
L2.09375 -0.109375
C9.29688 -0.109375 11.9062 -0.109375 14.4062 -0.109375
C16.4062 -0.109375 16.4062 -0.109375 28.7031 -0.109375
L28.7031 3
L23.5 3
C19 3 18.7969 3.29688 18.7969 9.96875
L18.7969 27.3594
C18.7969 33.4219 22.7969 38.4844 27.7031 38.4844
C30.7031 38.4844 32.7969 37.0781 34.4062 33.8906
L36.5 33.8906
L37.4062 45.8906
C36.2969 46.5938 34.5 47 32.7031 47
C29.7031 47 26.5 45.3906 24.4062 42.8906
L18.7969 36.2812
L18.7969 46.5938
L17.9062 47
C12.7969 44.8906 7.59375 43.4844 2.29688 42.8906
z
" id="URW_Palladio_L_Roman-114"/>
     <path d="
M9.79688 38.6875
L9.79688 9.67188
C9.79688 2.21875 13.0938 -1 20.7969 -1
C23.0938 -1 25.5 -0.5 26.0938 0.203125
L30.9062 5.51562
L29.5938 7.23438
C27.0938 5.8125 25.5938 5.3125 23.7031 5.3125
C19.7969 5.3125 18.2031 7.34375 18.2031 12.3125
L18.2031 38.8906
L31 38.8906
L31.9062 44
L18.2031 44
L18.2031 47.75
C18.2031 51.8906 18.5 55.4219 19.2969 61.7344
L18.0938 62.8281
C15.7031 61.3281 12.7031 60.0312 9.59375 59.0312
C9.90625 56.0156 10 54.1094 10 51.1094
L10 44.0938
L2.20312 40.5938
L2.20312 38.6875
z
" id="URW_Palladio_L_Roman-116"/>
     <path d="
M39.9062 31.1562
C39.9062 35.7656 40.4062 39.875 41.2969 43.4844
C37.2969 45.8906 33.7969 47 29.7031 47
C24.9062 47 19.2969 45.0938 13.2969 41.2812
C6.29688 36.875 2.59375 29.8594 2.59375 21.0469
C2.59375 7.51562 12.0938 -2 25.5 -2
C30.7031 -2 38.2031 -0.09375 39.2031 1.40625
L41.2969 4.60938
L40.2969 6.10938
C36.5938 4.10938 33.4062 3.20312 29.7969 3.20312
C18.7031 3.20312 11.4062 11.8281 11.4062 25.0469
C11.4062 35.7656 16.4062 41.7812 25.4062 41.7812
C29.7969 41.7812 34.5938 39.7812 36.4062 37.2812
L37.0938 31.1562
z
" id="URW_Palladio_L_Roman-99"/>
     <path d="
M15 72.1875
L14.0938 73
C9.70312 71.2969 6.40625 70.4844 -1.5 69.2812
L-1.5 66.4844
L4.09375 66.4844
C5.90625 66.4844 6.59375 65.375 6.59375 62.3594
L6.59375 15.4531
C6.59375 9.23438 6.5 6.5 5.79688 -0.515625
L7.40625 -1.10938
L11.4062 2.5
C15.4062 -0.109375 19 -1.10938 24.2969 -1.10938
C28.2031 -1.10938 30.7969 -0.40625 32.9062 1.09375
L42.9062 8.29688
C47.2969 11.4844 50.7969 19.7812 50.7969 27.0781
C50.7969 38.6875 43.2969 47 32.7031 47
C28 47 23.0938 45.1875 20.5 42.5781
L15 36.9844
z

M15 30.8906
C15 32.2812 16 34.0781 17.5938 35.8906
C20.4062 38.7812 24.2969 40.4844 28.4062 40.4844
C36.7969 40.4844 42.0938 33.6875 42.0938 23
C42.0938 11.7969 36.0938 4 27.5938 4
C22.4062 4 15 7.1875 15 9.39062
z
" id="URW_Palladio_L_Roman-98"/>
     <path d="
M67 8.40625
L66.0938 9.42188
C59.9062 5.40625 53 3.40625 45.4062 3.40625
C25.9062 3.40625 12.9062 16.4219 12.9062 36.1406
C12.9062 54.5781 24.2969 66.7812 41.5 66.7812
C51.2969 66.7812 61.4062 62.7812 61.4062 58.8906
L61.4062 51.6719
L64.5 51.6719
C64.5938 56.6719 65 60.2656 66.4062 66.875
C57.9062 69.6875 50.5938 71 43.2969 71
C34.5938 71 26.2969 68.8906 19.5938 64.9844
C8.20312 58.2812 2.20312 47.7656 2.20312 34.25
C2.20312 12.6094 18 -2 41.5 -2
C49.7969 -2 57.2969 -0.203125 64.2031 3.39062
z
" id="URW_Palladio_L_Roman-67"/>
     <path d="
M18.7969 46.7656
L17.9062 47.1562
C12.7969 45.0469 7.59375 43.6406 2.29688 43.0469
L2.29688 40.25
L6 40.25
C10 40.25 10.4062 39.5469 10.4062 32.8906
L10.4062 10.1719
C10.4062 3.8125 10.0938 3.10938 6.70312 3.10938
L2.09375 3.10938
L2.09375 0
C12.0938 0 12.0938 0.203125 14.5938 0.203125
C17.0938 0.203125 17.0938 0 27.0938 0
L27.0938 3.10938
L22.5 3.10938
C19.0938 3.10938 18.7969 3.8125 18.7969 10.1719
z

M14.2031 69
C11.2031 69 8.59375 66.3906 8.59375 63.375
C8.59375 60.4688 11.2031 57.875 14.0938 57.875
C17 57.875 19.7031 60.4688 19.7031 63.375
C19.7031 66.1875 17 69 14.2031 69" id="URW_Palladio_L_Roman-105"/>
     <path d="
M28.2031 22
L31.2031 28.7031
L30.7031 29.2031
L4.40625 29.2031
L1.70312 22.5
L2.20312 22
z
" id="URW_Palladio_L_Roman-45"/>
     <path d="
M32.4062 8.40625
L31.9062 -0.015625
C38.4062 -0.015625 38.4062 -0.015625 39.7031 -0.015625
C40.2031 -0.015625 42.7031 -0.015625 47.0938 -0.015625
L47.0938 3
L43.2031 3
C40.7969 3 40.4062 3.8125 40.4062 8.71875
L40.4062 27.0469
C40.4062 41.6875 36.2031 47 24.5938 47
C20.2969 47 16.2969 45.8906 12.5 43.6094
L7.20312 40.3906
L7.20312 33.9219
L9.79688 33.2188
L11.0938 36.2969
C13.2031 40.9844 14.2031 41.6875 18.7969 41.6875
C28.2031 41.6875 32.0938 37.9844 32.4062 28.9375
L22.5 27.125
C8.90625 24.6406 3.20312 19.9531 3.20312 11.2812
C3.20312 3.5 7.90625 -1 15.7969 -1
C17.5938 -1 19.2969 -0.703125 20 -0.203125
z

M32.4062 12.5938
C29.5 8.5 23.2031 4.71875 19.2969 4.71875
C15.2969 4.71875 11.7969 8.40625 11.7969 12.6875
C11.7969 16.375 13.7969 19.8594 16.7969 21.75
C19.2969 23.25 24.7969 24.6406 32.4062 25.75
z
" id="URW_Palladio_L_Roman-97"/>
    </defs>
    <g transform="translate(40.3768190696 9.30258381655)scale(0.08 -0.08)">
     <use transform="scale(0.996264009963)" xlink:href="#URW_Palladio_L_Roman-67"/>
     <use transform="translate(70.6347929882 0.0)scale(0.996264009963)" xlink:href="#URW_Palladio_L_Roman-121"/>
     <use transform="translate(126.026469952 0.0)scale(0.996264009963)" xlink:href="#URW_Palladio_L_Roman-99"/>
     <use transform="translate(170.260038649 0.0)scale(0.996264009963)" xlink:href="#URW_Palladio_L_Roman-108"/>
     <use transform="translate(199.250400111 0.0)scale(0.996264009963)" xlink:href="#URW_Palladio_L_Roman-101"/>
     <use transform="translate(246.97069522 0.0)scale(0.996264009963)" xlink:href="#URW_Palladio_L_Roman-45"/>
     <use transform="translate(280.145924949 0.0)scale(0.996264009963)" xlink:href="#URW_Palladio_L_Roman-116"/>
     <use transform="translate(312.623012823 0.0)scale(0.996264009963)" xlink:href="#URW_Palladio_L_Roman-111"/>
     <use transform="translate(367.018592996 0.0)scale(0.996264009963)" xlink:href="#URW_Palladio_L_Roman-45"/>
     <use transform="translate(400.193822725 0.0)scale(0.996264009963)" xlink:href="#URW_Palladio_L_Roman-99"/>
     <use transform="translate(444.427391423 0.0)scale(0.996264009963)" xlink:href="#URW_Palladio_L_Roman-121"/>
     <use transform="translate(499.819068386 0.0)scale(0.996264009963)" xlink:href="#URW_Palladio_L_Roman-99"/>
     <use transform="translate(544.052637084 0.0)scale(0.996264009963)" xlink:href="#URW_Palladio_L_Roman-108"/>
     <use transform="translate(573.042998545 0.0)scale(0.996264009963)" xlink:href="#URW_Palladio_L_Roman-101"/>
     <use transform="translate(645.669893904 0.0)scale(0.996264009963)" xlink:href="#URW_Palladio_L_Roman-118"/>
     <use transform="translate(701.957807149 0.0)scale(0.996264009963)" xlink:href="#URW_Palladio_L_Roman-97"/>
     <use transform="translate(751.771007647 0.0)scale(0.996264009963)" xlink:href="#URW_Palladio_L_Roman-114"/>
     <use transform="translate(791.122903978 0.0)scale(0.996264009963)" xlink:href="#URW_Palladio_L_Roman-105"/>
     <use transform="translate(820.11326544 0.0)scale(0.996264009963)" xlink:href="#URW_Palladio_L_Roman-97"/>
     <use transform="translate(869.926465938 0.0)scale(0.996264009963)" xlink:href="#URW_Palladio_L_Roman-98"/>
     <use transform="translate(925.018865412 0.0)scale(0.996264009963)" xlink:href="#URW_Palladio_L_Roman-105"/>
     <use transform="translate(954.009226874 0.0)scale(0.996264009963)" xlink:href="#URW_Palladio_L_Roman-108"/>
     <use transform="translate(982.999588336 0.0)scale(0.996264009963)" xlink:href="#URW_Palladio_L_Roman-105"/>
     <use transform="translate(1011.9899498 0.0)scale(0.996264009963)" xlink:href="#URW_Palladio_L_Roman-116"/>
     <use transform="translate(1044.46703767 0.0)scale(0.996264009963)" xlink:href="#URW_Palladio_L_Roman-121"/>
    </g>
   </g>
  </g>
  <g id="axes_2">
   <g id="patch_7">
    <path d="
M170.126 117.983
L292.632 117.983
L292.632 14.3026
L170.126 14.3026
z
" style="fill:#ffffff;"/>
   </g>
   <g id="line2d_26">
    <path clip-path="url(#p240fa44e92)" d="
M170.126 66.1426
L170.861 24.171
L171.229 14.9454
L171.352 14.3281
L171.475 14.9906
L171.72 20.0574
L172.088 35.8553
L173.559 115.352
L173.804 117.753
L173.927 117.049
L174.172 111.918
L174.54 96.0949
L176.012 17.2313
L176.257 14.9366
L176.38 15.6805
L176.625 20.8532
L176.993 36.6388
L178.464 114.566
L178.71 116.747
L178.832 115.968
L179.078 110.775
L179.445 95.0897
L180.917 18.3904
L181.162 16.3285
L181.285 17.1386
L181.53 22.3306
L181.898 37.8536
L183.37 113.047
L183.615 114.986
L183.737 114.149
L183.983 108.981
L184.351 93.6795
L185.7 22.8823
L185.945 18.7588
L186.067 18.4391
L186.19 19.297
L186.435 24.4206
L186.803 39.4429
L188.152 108.342
L188.397 112.279
L188.52 112.55
L188.643 111.676
L188.888 106.618
L189.256 91.929
L190.605 25.1397
L190.85 21.3969
L190.973 21.1725
L191.095 22.0579
L191.34 27.029
L191.708 41.3354
L193.057 105.826
L193.302 109.369
L193.425 109.549
L193.548 108.658
L193.793 103.792
L194.161 89.9149
L195.51 27.8881
L195.755 24.5471
L195.878 24.4094
L196 25.3011
L196.246 30.0426
L196.613 43.4502
L197.962 102.875
L198.208 106.012
L198.33 106.11
L198.453 105.223
L198.698 100.622
L199.066 87.7206
L200.415 31.0115
L200.66 28.0779
L200.783 28.0151
L200.905 28.8921
L201.151 33.3382
L201.519 45.7027
L202.868 99.6101
L203.113 102.342
L203.235 102.373
L203.358 101.51
L203.603 97.2328
L203.971 85.4307
L205.32 34.3856
L205.565 31.8507
L205.688 31.8492
L205.811 32.6923
L206.056 36.7902
L206.424 48.01
L207.773 96.1576
L208.018 98.5002
L208.141 98.4765
L208.263 97.6568
L208.508 93.7481
L208.876 83.1251
L210.225 37.886
L210.471 35.7293
L210.593 35.7744
L210.838 38.0824
L211.206 46.4656
L211.942 72.7393
L212.555 90.6366
L212.801 93.9748
L212.923 94.617
L213.046 94.554
L213.291 92.3551
L213.659 84.4675
L214.395 59.8948
L215.008 43.2462
L215.253 40.1675
L215.376 39.5872
L215.498 39.6645
L215.744 41.7492
L216.111 49.1394
L216.847 72.0309
L217.338 85.2143
L217.706 90.2892
L217.828 90.8119
L217.951 90.7238
L218.196 88.7572
L218.564 81.8623
L219.3 60.621
L219.79 48.4421
L220.158 43.7838
L220.281 43.3144
L220.404 43.4102
L220.649 45.2558
L221.017 51.6613
L221.875 74.5138
L222.366 84.3984
L222.611 86.7646
L222.733 87.185
L222.856 87.0847
L223.101 85.3615
L223.469 79.4364
L224.328 58.4059
L224.818 49.351
L225.063 47.1972
L225.186 46.8213
L225.309 46.9234
L225.554 48.5236
L225.922 53.9807
L227.393 82.7107
L227.639 83.815
L227.761 83.7135
L228.007 82.2356
L228.374 77.2319
L229.846 51.0347
L230.091 50.0408
L230.214 50.1393
L230.459 51.4965
L230.827 56.064
L232.299 79.8635
L232.544 80.757
L232.666 80.6634
L232.912 79.4244
L233.28 75.2742
L234.751 53.7317
L234.996 52.9289
L235.119 53.016
L235.364 54.1402
L235.732 57.8936
L237.204 77.323
L237.449 78.0443
L237.572 77.965
L237.817 76.9518
L238.185 73.5734
L239.656 56.1116
L239.902 55.463
L240.024 55.5334
L240.269 56.4404
L240.637 59.4663
L242.109 75.1056
L242.354 75.6897
L242.477 75.629
L242.722 74.8232
L243.09 72.1266
L244.561 58.1665
L244.807 57.6394
L244.929 57.6897
L245.175 58.4
L245.542 60.7905
L247.014 73.2114
L247.259 73.6887
L247.382 73.6489
L247.627 73.0283
L247.995 70.9207
L249.467 59.9033
L249.712 59.4695
L249.834 59.4987
L250.08 60.0356
L250.448 61.8835
L251.919 71.6276
L252.164 72.0236
L252.287 72.0048
L252.532 71.5454
L252.9 69.9346
L253.759 64.1959
L254.249 61.706
L254.494 61.0952
L254.74 60.9851
L254.985 61.3735
L255.353 62.7691
L256.089 67.0862
L256.702 70.0031
L256.947 70.5543
L257.192 70.6677
L257.437 70.3441
L257.805 69.1427
L258.541 65.3752
L259.154 62.7977
L259.522 62.1918
L259.767 62.2679
L260.013 62.7129
L260.381 63.9492
L261.729 69.2949
L261.975 69.5842
L262.22 69.5367
L262.465 69.1662
L262.833 68.1084
L264.182 63.4216
L264.427 63.1509
L264.673 63.1729
L264.918 63.4776
L265.286 64.3777
L266.635 68.4846
L266.88 68.7389
L267.125 68.7391
L267.37 68.4921
L267.738 67.7299
L269.21 63.9845
L269.455 63.8543
L269.7 63.9451
L270.068 64.4584
L270.681 65.9616
L271.417 67.687
L271.785 68.0934
L272.03 68.1283
L272.276 67.9738
L272.643 67.4344
L274.238 64.4511
L274.483 64.4037
L274.728 64.5224
L275.096 64.974
L275.832 66.409
L276.445 67.4098
L276.813 67.6582
L277.181 67.579
L277.549 67.2013
L278.284 65.9527
L278.898 65.054
L279.265 64.8164
L279.633 64.8663
L280.001 65.1825
L280.737 66.2724
L281.35 67.081
L281.718 67.3068
L282.086 67.2793
L282.454 67.0133
L283.067 66.2312
L283.803 65.3293
L284.171 65.1165
L284.538 65.1279
L284.906 65.3534
L285.52 66.041
L286.255 66.8527
L286.746 67.0736
L287.114 67.0055
L287.604 66.6423
L288.953 65.376
L289.321 65.3105
L289.689 65.4249
L290.302 65.9189
L291.283 66.772
L291.774 66.8884
L292.264 66.7204
L292.632 66.4494
L292.632 66.4494" style="fill:none;stroke:#377eb8;stroke-linecap:square;stroke-width:0.75;"/>
   </g>
   <g id="line2d_27">
    <path clip-path="url(#p240fa44e92)" d="
M170.126 14.3026
L172.701 14.4138
L175.276 14.7462
L177.974 15.3268
L180.672 16.1372
L183.492 17.218
L186.435 18.5829
L189.624 20.3099
L193.057 22.4229
L196.981 25.1043
L201.764 28.6601
L208.754 34.1739
L218.932 42.1811
L224.328 46.1296
L228.988 49.2699
L233.28 51.9029
L237.449 54.2038
L241.496 56.1887
L245.542 57.9312
L249.712 59.4824
L254.004 60.8365
L258.418 61.9947
L263.078 62.9876
L268.106 63.8309
L273.624 64.5301
L279.879 65.0958
L287.236 65.533
L292.632 65.7416
L292.632 65.7416" style="fill:none;stroke:#e41a1c;stroke-dasharray:2.000000,2.000000;stroke-dashoffset:0.0;stroke-linecap:round;stroke-width:0.75;"/>
   </g>
   <g id="line2d_28">
    <path clip-path="url(#p240fa44e92)" d="
M170.126 117.983
L172.701 117.871
L175.276 117.539
L177.974 116.958
L180.672 116.148
L183.492 115.067
L186.435 113.702
L189.624 111.975
L193.057 109.862
L196.981 107.181
L201.764 103.625
L208.754 98.1112
L218.932 90.104
L224.328 86.1556
L228.988 83.0152
L233.28 80.3823
L237.449 78.0813
L241.496 76.0964
L245.542 74.3539
L249.712 72.8028
L254.004 71.4487
L258.418 70.2905
L263.078 69.2976
L268.106 68.4543
L273.624 67.7551
L279.879 67.1894
L287.236 66.7521
L292.632 66.5435
L292.632 66.5435" style="fill:none;stroke:#e41a1c;stroke-dasharray:2.000000,2.000000;stroke-dashoffset:0.0;stroke-linecap:round;stroke-width:0.75;"/>
   </g>
   <g id="patch_8">
    <path d="
M170.126 14.3026
L292.632 14.3026" style="fill:none;stroke:#000000;stroke-linecap:square;stroke-linejoin:miter;stroke-width:0.5;"/>
   </g>
   <g id="patch_9">
    <path d="
M292.632 117.983
L292.632 14.3026" style="fill:none;stroke:#000000;stroke-linecap:square;stroke-linejoin:miter;stroke-width:0.5;"/>
   </g>
   <g id="patch_10">
    <path d="
M170.126 117.983
L292.632 117.983" style="fill:none;stroke:#000000;stroke-linecap:square;stroke-linejoin:miter;stroke-width:0.5;"/>
   </g>
   <g id="patch_11">
    <path d="
M170.126 117.983
L170.126 14.3026" style="fill:none;stroke:#000000;stroke-linecap:square;stroke-linejoin:miter;stroke-width:0.5;"/>
   </g>
   <g id="matplotlib.axis_3">
    <g id="xtick_7">
     <g id="line2d_29">
      <g>
       <use style="stroke:#000000;stroke-width:0.5;" x="170.125619464" xlink:href="#m93b0483c22" y="117.982583817"/>
      </g>
     </g>
     <g id="line2d_30">
      <g>
       <use style="stroke:#000000;stroke-width:0.5;" x="170.125619464" xlink:href="#m741efc42ff" y="14.3025838165"/>
      </g>
     </g>
     <g id="text_14">
      <!-- $0$ -->
      <g transform="translate(168.133091444 126.685167633)scale(0.08 -0.08)">
       <use transform="scale(0.996264009963)" xlink:href="#URW_Palladio_L_Roman-48"/>
      </g>
     </g>
    </g>
    <g id="xtick_8">
     <g id="line2d_31">
      <g>
       <use style="stroke:#000000;stroke-width:0.5;" x="194.626892191" xlink:href="#m93b0483c22" y="117.982583817"/>
      </g>
     </g>
     <g id="line2d_32">
      <g>
       <use style="stroke:#000000;stroke-width:0.5;" x="194.626892191" xlink:href="#m741efc42ff" y="14.3025838165"/>
      </g>
     </g>
     <g id="text_15">
      <!-- $5$ -->
      <g transform="translate(192.634364171 126.685167633)scale(0.08 -0.08)">
       <use transform="scale(0.996264009963)" xlink:href="#URW_Palladio_L_Roman-53"/>
      </g>
     </g>
    </g>
    <g id="xtick_9">
     <g id="line2d_33">
      <g>
       <use style="stroke:#000000;stroke-width:0.5;" x="219.128164919" xlink:href="#m93b0483c22" y="117.982583817"/>
      </g>
     </g>
     <g id="line2d_34">
      <g>
       <use style="stroke:#000000;stroke-width:0.5;" x="219.128164919" xlink:href="#m741efc42ff" y="14.3025838165"/>
      </g>
     </g>
     <g id="text_16">
      <!-- $10$ -->
      <g transform="translate(215.143108879 126.685167633)scale(0.08 -0.08)">
       <use transform="scale(0.996264009963)" xlink:href="#URW_Palladio_L_Roman-49"/>
       <use transform="translate(49.8132004981 0.0)scale(0.996264009963)" xlink:href="#URW_Palladio_L_Roman-48"/>
      </g>
     </g>
    </g>
    <g id="xtick_10">
     <g id="line2d_35">
      <g>
       <use style="stroke:#000000;stroke-width:0.5;" x="243.629437646" xlink:href="#m93b0483c22" y="117.982583817"/>
      </g>
     </g>
     <g id="line2d_36">
      <g>
       <use style="stroke:#000000;stroke-width:0.5;" x="243.629437646" xlink:href="#m741efc42ff" y="14.3025838165"/>
      </g>
     </g>
     <g id="text_17">
      <!-- $15$ -->
      <g transform="translate(239.644381606 126.685167633)scale(0.08 -0.08)">
       <use transform="scale(0.996264009963)" xlink:href="#URW_Palladio_L_Roman-49"/>
       <use transform="translate(49.8132004981 0.0)scale(0.996264009963)" xlink:href="#URW_Palladio_L_Roman-53"/>
      </g>
     </g>
    </g>
    <g id="xtick_11">
     <g id="line2d_37">
      <g>
       <use style="stroke:#000000;stroke-width:0.5;" x="268.130710373" xlink:href="#m93b0483c22" y="117.982583817"/>
      </g>
     </g>
     <g id="line2d_38">
      <g>
       <use style="stroke:#000000;stroke-width:0.5;" x="268.130710373" xlink:href="#m741efc42ff" y="14.3025838165"/>
      </g>
     </g>
     <g id="text_18">
      <!-- $20$ -->
      <g transform="translate(264.145654333 126.685167633)scale(0.08 -0.08)">
       <use transform="scale(0.996264009963)" xlink:href="#URW_Palladio_L_Roman-50"/>
       <use transform="translate(49.8132004981 0.0)scale(0.996264009963)" xlink:href="#URW_Palladio_L_Roman-48"/>
      </g>
     </g>
    </g>
    <g id="xtick_12">
     <g id="line2d_39">
      <g>
       <use style="stroke:#000000;stroke-width:0.5;" x="292.6319831" xlink:href="#m93b0483c22" y="117.982583817"/>
      </g>
     </g>
     <g id="line2d_40">
      <g>
       <use style="stroke:#000000;stroke-width:0.5;" x="292.6319831" xlink:href="#m741efc42ff" y="14.3025838165"/>
      </g>
     </g>
     <g id="text_19">
      <!-- $25$ -->
      <g transform="translate(288.646927061 126.685167633)scale(0.08 -0.08)">
       <use transform="scale(0.996264009963)" xlink:href="#URW_Palladio_L_Roman-50"/>
       <use transform="translate(49.8132004981 0.0)scale(0.996264009963)" xlink:href="#URW_Palladio_L_Roman-53"/>
      </g>
     </g>
    </g>
   </g>
   <g id="matplotlib.axis_4">
    <g id="ytick_6">
     <g id="line2d_41">
      <g>
       <use style="stroke:#000000;stroke-width:0.5;" x="170.125619464" xlink:href="#m728421d6d4" y="117.982583817"/>
      </g>
     </g>
     <g id="line2d_42">
      <g>
       <use style="stroke:#000000;stroke-width:0.5;" x="292.6319831" xlink:href="#mcb0005524f" y="117.982583817"/>
      </g>
     </g>
    </g>
    <g id="ytick_7">
     <g id="line2d_43">
      <g>
       <use style="stroke:#000000;stroke-width:0.5;" x="170.125619464" xlink:href="#m728421d6d4" y="92.0625838165"/>
      </g>
     </g>
     <g id="line2d_44">
      <g>
       <use style="stroke:#000000;stroke-width:0.5;" x="292.6319831" xlink:href="#mcb0005524f" y="92.0625838165"/>
      </g>
     </g>
    </g>
    <g id="ytick_8">
     <g id="line2d_45">
      <g>
       <use style="stroke:#000000;stroke-width:0.5;" x="170.125619464" xlink:href="#m728421d6d4" y="66.1425838165"/>
      </g>
     </g>
     <g id="line2d_46">
      <g>
       <use style="stroke:#000000;stroke-width:0.5;" x="292.6319831" xlink:href="#mcb0005524f" y="66.1425838165"/>
      </g>
     </g>
    </g>
    <g id="ytick_9">
     <g id="line2d_47">
      <g>
       <use style="stroke:#000000;stroke-width:0.5;" x="170.125619464" xlink:href="#m728421d6d4" y="40.2225838165"/>
      </g>
     </g>
     <g id="line2d_48">
      <g>
       <use style="stroke:#000000;stroke-width:0.5;" x="292.6319831" xlink:href="#mcb0005524f" y="40.2225838165"/>
      </g>
     </g>
    </g>
    <g id="ytick_10">
     <g id="line2d_49">
      <g>
       <use style="stroke:#000000;stroke-width:0.5;" x="170.125619464" xlink:href="#m728421d6d4" y="14.3025838165"/>
      </g>
     </g>
     <g id="line2d_50">
      <g>
       <use style="stroke:#000000;stroke-width:0.5;" x="292.6319831" xlink:href="#mcb0005524f" y="14.3025838165"/>
      </g>
     </g>
    </g>
   </g>
   <g id="text_20">
    <!-- $$e^{-\tilde{d} t^2}$$ -->
    <defs>
     <path d="
M30.2969 64.5
C28.7969 60.8125 27.2031 59.5156 24.4062 59.5156
C23.2031 59.5156 22.0938 59.9062 19.7031 61.0156
C14.4062 63.5938 13.2031 64 10.7969 64
C5.29688 64 1.59375 60.5 0.203125 54
L3.09375 54
C4.40625 57.0938 6 58.4844 8.40625 58.4844
C9.79688 58.4844 11.7969 57.7969 15.5 55.9062
C18.5 54.5 20.0938 54 22.2969 54
C28 54 32.7969 58.7031 33.2031 64.5
z
" id="URW_Palladio_L_Roman-152"/>
    </defs>
    <g transform="translate(250.350192842 56.9676800674)scale(0.08 -0.08)">
     <use transform="scale(0.996264009963)" xlink:href="#URW_Palladio_L_Italic-101"/>
     <use transform="translate(40.9464872937 41.1457066518)scale(0.788955479452)" xlink:href="#CMSY10-0"/>
     <use transform="translate(124.876652738 60.756021122)scale(0.75715517493)" xlink:href="#URW_Palladio_L_Roman-152"/>
     <use transform="translate(104.168146307 41.1457066518)scale(0.75715517493)" xlink:href="#URW_Palladio_L_Italic-100"/>
     <use transform="translate(143.918754986 41.1457066518)scale(0.75715517493)" xlink:href="#URW_Palladio_L_Italic-116"/>
     <use transform="translate(170.077754077 68.6304227798)scale(0.597764486691)" xlink:href="#URW_Palladio_L_Roman-50"/>
    </g>
   </g>
   <g id="text_21">
    <!-- Period heterogenity -->
    <defs>
     <path d="
M51.9062 38
L54.4062 42.1094
L54 43.1094
L39.7969 43.1094
C36.0938 45.8906 32.5 47 27.5938 47
C23.2031 47 18.0938 45.625 14 43.25
C8.40625 40.1094 5.5 35.2812 5.5 29.2812
C5.5 22 10.0938 16.9844 17.5 16.1875
L9.59375 10
C8.59375 8.48438 8.09375 7.17188 8.09375 5.64062
C8.09375 2.8125 9.90625 1.1875 14.7031 -0.21875
L6 -4.9375
C4.59375 -5.73438 3.20312 -9.4375 3.20312 -12.5469
C3.20312 -21.6875 12.0938 -28 24.7969 -28
C39.9062 -28 51.7969 -18.4688 51.7969 -6.23438
C51.7969 0.984375 47 6 40 6
L24 6
C18.7969 6 16.4062 7.21875 16.4062 9.96875
C16.4062 11.3125 17.2031 12.4219 19.7969 14.6719
C20.4062 15.1719 20.5938 15.3906 21 15.7969
C22 15.6875 22.5938 15.5938 23.4062 15.5938
C27.7031 15.5938 33 17.4688 37.0938 20.3125
C41.5938 23.5469 43.7969 27.4844 43.7969 32.7031
C43.7969 34.6562 43.5 35.9375 42.7031 38
z

M24 43.5938
C30.7969 43.5938 35.4062 38.0938 35.4062 29.7656
C35.4062 23.4219 31.2031 19 25.0938 19
C18.4062 19 13.9062 24.0938 13.9062 31.6406
C13.9062 39.1719 17.5938 43.5938 24 43.5938
M28.7031 -1.01562
C40 -1.01562 43.9062 -3.3125 43.9062 -9.84375
C43.9062 -18.4688 36 -24.8906 25.5 -24.8906
C16.7969 -24.8906 10.7969 -19.7812 10.7969 -12.3438
C10.7969 -7.84375 13.4062 -3.71875 17.4062 -2.01562
C19 -1.21875 21.7969 -1.01562 28.7031 -1.01562" id="URW_Palladio_L_Roman-103"/>
     <path d="
M21.5938 64.7969
C25.0938 65.5938 28 66 31.4062 66
C42.2031 66 48 60.9531 48 51.4062
C48 42.3438 41.9062 36 33.2031 36
C31.0938 36 29.5938 36.2031 27 37
L28 33.3906
C30.4062 32.8906 31.7969 32.7969 33.7969 32.7969
C47.5 32.7969 58 42.1406 58 54.2188
C58 63.875 50.2031 69.8125 37.5 69.8125
C37 69.8125 36 69.8125 34.7031 69.6094
C31 69.6094 23.4062 69.6094 20.5 69.6094
C18.2969 69.6094 18.2969 69.6094 2.29688 69.6094
L2.29688 66.5
L6.79688 66.5
C11.2969 66.5 12.0938 65.1719 12.0938 57.6562
L12.0938 12.0469
C12.0938 4.01562 11.5938 3.20312 7 3.20312
L2.20312 3.20312
L2.20312 0
C8.09375 0 11.5938 0 16.7969 0
C22 0 25.5938 0 31.5 0
L31.5 3.20312
L26.7031 3.20312
C22.0938 3.20312 21.5938 4 21.5938 12
z
" id="URW_Palladio_L_Roman-80"/>
     <path d="
M41.2031 43.7812
C35.5938 46.1875 32.7969 47 29.2969 47
C26.5938 47 24.2031 46.3906 21.7031 45.1094
L12.9062 40.5156
C7.20312 37.5156 3.5 30.2344 3.5 21.75
C3.5 13.7656 6.20312 7.1875 11.0938 3.1875
C14.5 0.296875 19.2031 -1 25.7031 -1
C27.7031 -1 30 -0.59375 30.5 -0.203125
L41.5938 9.10938
L41.0938 -0.109375
C46 -0.109375 47.5938 -0.109375 48.7969 -0.109375
C49.5938 -0.109375 51 -0.109375 53.0938 -0.109375
C53.7969 -0.109375 55.7969 -0.109375 57.9062 -0.109375
L57.9062 3
L53.2969 3
C49.9062 3 49.5938 3.70312 49.5938 10.0469
L49.5938 71.9844
L48.7031 72.7969
C44.2969 71.0938 41 70.2812 33.0938 69.0781
L33.0938 66.2812
L38.7031 66.2812
C40.5 66.2812 41.2031 65.1719 41.2031 62.1562
z

M41.2031 22.25
C41.2031 15.7656 41 14.7812 39.7031 12.4844
C36.9062 7.79688 32 4.71875 27.2969 4.71875
C18.5 4.71875 12.2031 13.1875 12.2031 25.0469
C12.2031 35.9062 17.5938 42.2812 26.5938 42.2812
C30.4062 42.2812 34.4062 40.9844 37.9062 38.5938
C40 37.2031 41.2031 35.9062 41.2031 35.0938
z
" id="URW_Palladio_L_Roman-100"/>
     <path d="
M0.703125 66.375
L6.29688 66.375
C8.09375 66.375 8.79688 65.2656 8.79688 62.25
L8.79688 10.0469
C8.79688 3.70312 8.5 3 5.09375 3
L0.59375 3
L0.59375 -0.109375
C7.40625 -0.109375 10.0938 -0.109375 13 -0.109375
C15.9062 -0.109375 18.5938 -0.109375 25.4062 -0.109375
L25.4062 3
L20.9062 3
C17.5 3 17.2031 3.70312 17.2031 10.0469
L17.2031 31.4219
C17.2031 35.9375 23.7969 40.875 29.9062 40.875
C36.5938 40.875 41 35.8906 41 28.2188
L41 -0.109375
C47.0938 -0.109375 47.2031 -0.109375 48.9062 -0.109375
C50.2969 -0.109375 50.2969 -0.109375 57.2031 -0.109375
L57.2031 2.79688
L53.0938 3.20312
C49.7031 3.20312 49.4062 3.8125 49.4062 10.2188
L49.4062 29.5625
C49.4062 41.2812 43.9062 47 32.7031 47
C29 47 26.9062 46.2969 24.7969 44.4844
L17.2031 37.875
L17.2031 72.0781
L16.2969 72.8906
C11.9062 71.1875 8.59375 70.375 0.703125 69.1719
z
" id="URW_Palladio_L_Roman-104"/>
     <path d="
M41 -0.109375
C47.0938 -0.109375 47.2031 -0.109375 48.9062 -0.109375
C50.2969 -0.109375 50.2969 -0.109375 57.2031 -0.109375
L57.2031 2.79688
L53.0938 3.20312
C49.7031 3.20312 49.4062 3.8125 49.4062 10.2188
L49.4062 29.5625
C49.4062 41.2812 43.9062 47 32.7031 47
C29 47 26.9062 46.2969 24.7969 44.4844
L17.2031 37.875
L17.2031 46.5938
L16.2969 47
C11.2031 44.8906 6 43.4844 0.703125 42.8906
L0.703125 40.0781
L4.40625 40.0781
C8.40625 40.0781 8.79688 39.375 8.79688 32.7188
L8.79688 10.0469
C8.79688 3.70312 8.5 3 5.09375 3
L0.59375 3
L0.59375 -0.109375
C7.40625 -0.109375 10.0938 -0.109375 13 -0.109375
C15.9062 -0.109375 18.5938 -0.109375 25.4062 -0.109375
L25.4062 3
L20.9062 3
C17.5 3 17.2031 3.70312 17.2031 10.0469
L17.2031 31.4219
C17.2031 35.9375 23.7969 40.875 29.9062 40.875
C36.5938 40.875 41 35.8906 41 28.2188
z
" id="URW_Palladio_L_Roman-110"/>
    </defs>
    <g transform="translate(196.490095051 9.30258381655)scale(0.08 -0.08)">
     <use transform="scale(0.996264009963)" xlink:href="#URW_Palladio_L_Roman-80"/>
     <use transform="translate(60.1735952337 0.0)scale(0.996264009963)" xlink:href="#URW_Palladio_L_Roman-101"/>
     <use transform="translate(107.893890343 0.0)scale(0.996264009963)" xlink:href="#URW_Palladio_L_Roman-114"/>
     <use transform="translate(147.245786674 0.0)scale(0.996264009963)" xlink:href="#URW_Palladio_L_Roman-105"/>
     <use transform="translate(176.236148136 0.0)scale(0.996264009963)" xlink:href="#URW_Palladio_L_Roman-111"/>
     <use transform="translate(230.631728309 0.0)scale(0.996264009963)" xlink:href="#URW_Palladio_L_Roman-100"/>
     <use transform="translate(316.409959235 0.0)scale(0.996264009963)" xlink:href="#URW_Palladio_L_Roman-104"/>
     <use transform="translate(374.392019916 0.0)scale(0.996264009963)" xlink:href="#URW_Palladio_L_Roman-101"/>
     <use transform="translate(422.112315025 0.0)scale(0.996264009963)" xlink:href="#URW_Palladio_L_Roman-116"/>
     <use transform="translate(454.589402898 0.0)scale(0.996264009963)" xlink:href="#URW_Palladio_L_Roman-101"/>
     <use transform="translate(502.309698007 0.0)scale(0.996264009963)" xlink:href="#URW_Palladio_L_Roman-114"/>
     <use transform="translate(539.869015362 0.0)scale(0.996264009963)" xlink:href="#URW_Palladio_L_Roman-111"/>
     <use transform="translate(594.264595535 0.0)scale(0.996264009963)" xlink:href="#URW_Palladio_L_Roman-103"/>
     <use transform="translate(649.656272499 0.0)scale(0.996264009963)" xlink:href="#URW_Palladio_L_Roman-101"/>
     <use transform="translate(697.376567608 0.0)scale(0.996264009963)" xlink:href="#URW_Palladio_L_Roman-110"/>
     <use transform="translate(755.358628288 0.0)scale(0.996264009963)" xlink:href="#URW_Palladio_L_Roman-105"/>
     <use transform="translate(784.34898975 0.0)scale(0.996264009963)" xlink:href="#URW_Palladio_L_Roman-116"/>
     <use transform="translate(816.826077624 0.0)scale(0.996264009963)" xlink:href="#URW_Palladio_L_Roman-121"/>
    </g>
   </g>
  </g>
 </g>
 <defs>
  <clipPath id="p240fa44e92">
   <rect height="103.68" width="122.506363636" x="170.125619464" y="14.3025838165"/>
  </clipPath>
  <clipPath id="p6755c98d0e">
   <rect height="103.68" width="122.506363636" x="23.1179831005" y="14.3025838165"/>
  </clipPath>
 </defs>
</svg>
