<?xml version="1.0" encoding="utf-8" standalone="no"?>
<!DOCTYPE svg PUBLIC "-//W3C//DTD SVG 1.1//EN"
  "http://www.w3.org/Graphics/SVG/1.1/DTD/svg11.dtd">
<!-- Created with matplotlib (http://matplotlib.org/) -->
<svg height="123pt" version="1.1" viewBox="0 0 177 123" width="177pt" xmlns="http://www.w3.org/2000/svg" xmlns:xlink="http://www.w3.org/1999/xlink">
 <defs>
  <style type="text/css">
*{stroke-linecap:butt;stroke-linejoin:round;}
  </style>
 </defs>
 <g id="figure_1">
  <g id="patch_1">
   <path d="
M0 123.76
L177.04 123.76
L177.04 1.42109e-14
L0 1.42109e-14
z
" style="fill:#ffffff;"/>
  </g>
  <g id="axes_1">
   <g id="patch_2">
    <path d="
M31.4978 98.2598
L173.44 98.2598
L173.44 7.57505
L31.4978 7.57505
z
" style="fill:#ffffff;"/>
   </g>
   <g id="LineCollection_1">
    <defs>
     <path d="
M40.3692 -99.2604
L40.3692 -102.128" id="C0_0_77f1f592a9"/>
     <path d="
M58.112 -99.0429
L58.112 -102.485" id="C0_1_441af8d23c"/>
     <path d="
M75.8547 -98.5796
L75.8547 -99.0107" id="C0_2_8991c3ab00"/>
     <path d="
M93.5975 -100.631
L93.5975 -100.917" id="C0_3_a5ed555e19"/>
     <path d="
M111.34 -88.0456
L111.34 -90.0597" id="C0_4_80e36f2474"/>
     <path d="
M129.083 -80.5158
L129.083 -81.6513" id="C0_5_3030712590"/>
     <path d="
M146.826 -67.6751
L146.826 -88.8439" id="C0_6_3696df204b"/>
     <path d="
M164.569 -43.9526
L164.569 -54.351" id="C0_7_1de86b3890"/>
    </defs>
    <g clip-path="url(#p4bfcc20012)">
     <use style="fill:none;stroke:#262626;stroke-width:0.5;" x="0.0" xlink:href="#C0_0_77f1f592a9" y="123.76"/>
    </g>
    <g clip-path="url(#p4bfcc20012)">
     <use style="fill:none;stroke:#262626;stroke-width:0.5;" x="0.0" xlink:href="#C0_1_441af8d23c" y="123.76"/>
    </g>
    <g clip-path="url(#p4bfcc20012)">
     <use style="fill:none;stroke:#262626;stroke-width:0.5;" x="0.0" xlink:href="#C0_2_8991c3ab00" y="123.76"/>
    </g>
    <g clip-path="url(#p4bfcc20012)">
     <use style="fill:none;stroke:#262626;stroke-width:0.5;" x="0.0" xlink:href="#C0_3_a5ed555e19" y="123.76"/>
    </g>
    <g clip-path="url(#p4bfcc20012)">
     <use style="fill:none;stroke:#262626;stroke-width:0.5;" x="0.0" xlink:href="#C0_4_80e36f2474" y="123.76"/>
    </g>
    <g clip-path="url(#p4bfcc20012)">
     <use style="fill:none;stroke:#262626;stroke-width:0.5;" x="0.0" xlink:href="#C0_5_3030712590" y="123.76"/>
    </g>
    <g clip-path="url(#p4bfcc20012)">
     <use style="fill:none;stroke:#262626;stroke-width:0.5;" x="0.0" xlink:href="#C0_6_3696df204b" y="123.76"/>
    </g>
    <g clip-path="url(#p4bfcc20012)">
     <use style="fill:none;stroke:#262626;stroke-width:0.5;" x="0.0" xlink:href="#C0_7_1de86b3890" y="123.76"/>
    </g>
   </g>
   <g id="LineCollection_2">
    <defs>
     <path d="
M40.3692 -94.2939
L40.3692 -94.4856" id="C1_0_bac3932d5e"/>
     <path d="
M58.112 -97.1177
L58.112 -98.9515" id="C1_1_e134998b70"/>
     <path d="
M75.8547 -96.3462
L75.8547 -96.8854" id="C1_2_c152b77185"/>
     <path d="
M93.5975 -88.7753
L93.5975 -92.1361" id="C1_3_b120203858"/>
     <path d="
M111.34 -78.2009
L111.34 -83.2856" id="C1_4_fd95489b71"/>
     <path d="
M129.083 -73.6738
L129.083 -74.8073" id="C1_5_0ed09a0fcc"/>
     <path d="
M146.826 -37.9549
L146.826 -66.9142" id="C1_6_7f919107aa"/>
    </defs>
    <g clip-path="url(#p4bfcc20012)">
     <use style="fill:none;stroke:#262626;stroke-width:0.5;" x="0.0" xlink:href="#C1_0_bac3932d5e" y="123.76"/>
    </g>
    <g clip-path="url(#p4bfcc20012)">
     <use style="fill:none;stroke:#262626;stroke-width:0.5;" x="0.0" xlink:href="#C1_1_e134998b70" y="123.76"/>
    </g>
    <g clip-path="url(#p4bfcc20012)">
     <use style="fill:none;stroke:#262626;stroke-width:0.5;" x="0.0" xlink:href="#C1_2_c152b77185" y="123.76"/>
    </g>
    <g clip-path="url(#p4bfcc20012)">
     <use style="fill:none;stroke:#262626;stroke-width:0.5;" x="0.0" xlink:href="#C1_3_b120203858" y="123.76"/>
    </g>
    <g clip-path="url(#p4bfcc20012)">
     <use style="fill:none;stroke:#262626;stroke-width:0.5;" x="0.0" xlink:href="#C1_4_fd95489b71" y="123.76"/>
    </g>
    <g clip-path="url(#p4bfcc20012)">
     <use style="fill:none;stroke:#262626;stroke-width:0.5;" x="0.0" xlink:href="#C1_5_0ed09a0fcc" y="123.76"/>
    </g>
    <g clip-path="url(#p4bfcc20012)">
     <use style="fill:none;stroke:#262626;stroke-width:0.5;" x="0.0" xlink:href="#C1_6_7f919107aa" y="123.76"/>
    </g>
   </g>
   <g id="LineCollection_3">
    <defs>
     <path d="
M40.3692 -99.2604
L40.3692 -102.128" id="C2_0_77f1f592a9"/>
     <path d="
M58.112 -93.8921
L58.112 -99.6613" id="C2_1_f3a02f0356"/>
     <path d="
M75.8547 -92.4747
L75.8547 -94.9629" id="C2_2_ba87b8e250"/>
     <path d="
M93.5975 -97.6121
L93.5975 -99.9604" id="C2_3_ea62a46459"/>
     <path d="
M111.34 -94.7365
L111.34 -97.4464" id="C2_4_74c3d20217"/>
     <path d="
M129.083 -87.808
L129.083 -94.6415" id="C2_5_09cbdcd4db"/>
     <path d="
M146.826 -83.8712
L146.826 -87.1095" id="C2_6_8342304c6d"/>
     <path d="
M164.569 -36.6561
L164.569 -38.3851" id="C2_7_28f47d0d1f"/>
    </defs>
    <g clip-path="url(#p4bfcc20012)">
     <use style="fill:none;stroke:#262626;stroke-width:0.5;" x="0.0" xlink:href="#C2_0_77f1f592a9" y="123.76"/>
    </g>
    <g clip-path="url(#p4bfcc20012)">
     <use style="fill:none;stroke:#262626;stroke-width:0.5;" x="0.0" xlink:href="#C2_1_f3a02f0356" y="123.76"/>
    </g>
    <g clip-path="url(#p4bfcc20012)">
     <use style="fill:none;stroke:#262626;stroke-width:0.5;" x="0.0" xlink:href="#C2_2_ba87b8e250" y="123.76"/>
    </g>
    <g clip-path="url(#p4bfcc20012)">
     <use style="fill:none;stroke:#262626;stroke-width:0.5;" x="0.0" xlink:href="#C2_3_ea62a46459" y="123.76"/>
    </g>
    <g clip-path="url(#p4bfcc20012)">
     <use style="fill:none;stroke:#262626;stroke-width:0.5;" x="0.0" xlink:href="#C2_4_74c3d20217" y="123.76"/>
    </g>
    <g clip-path="url(#p4bfcc20012)">
     <use style="fill:none;stroke:#262626;stroke-width:0.5;" x="0.0" xlink:href="#C2_5_09cbdcd4db" y="123.76"/>
    </g>
    <g clip-path="url(#p4bfcc20012)">
     <use style="fill:none;stroke:#262626;stroke-width:0.5;" x="0.0" xlink:href="#C2_6_8342304c6d" y="123.76"/>
    </g>
    <g clip-path="url(#p4bfcc20012)">
     <use style="fill:none;stroke:#262626;stroke-width:0.5;" x="0.0" xlink:href="#C2_7_28f47d0d1f" y="123.76"/>
    </g>
   </g>
   <g id="LineCollection_4">
    <defs>
     <path d="
M40.3692 -94.2939
L40.3692 -94.4856" id="C3_0_bac3932d5e"/>
     <path d="
M58.112 -70.065
L58.112 -93.0322" id="C3_1_f39a6c64d6"/>
     <path d="
M75.8547 -85.7489
L75.8547 -90.5394" id="C3_2_da2dea7617"/>
     <path d="
M93.5975 -89.9002
L93.5975 -95.0995" id="C3_3_4b38a21b4e"/>
     <path d="
M111.34 -78.3692
L111.34 -83.3799" id="C3_4_0035762d86"/>
     <path d="
M129.083 -87.1354
L129.083 -88.0994" id="C3_5_ac9f73d32b"/>
     <path d="
M146.826 -80.2098
L146.826 -84.881" id="C3_6_49df64f9e7"/>
     <path d="
M164.569 -52.5682
L164.569 -53.4463" id="C3_7_98fb809476"/>
    </defs>
    <g clip-path="url(#p4bfcc20012)">
     <use style="fill:none;stroke:#262626;stroke-width:0.5;" x="0.0" xlink:href="#C3_0_bac3932d5e" y="123.76"/>
    </g>
    <g clip-path="url(#p4bfcc20012)">
     <use style="fill:none;stroke:#262626;stroke-width:0.5;" x="0.0" xlink:href="#C3_1_f39a6c64d6" y="123.76"/>
    </g>
    <g clip-path="url(#p4bfcc20012)">
     <use style="fill:none;stroke:#262626;stroke-width:0.5;" x="0.0" xlink:href="#C3_2_da2dea7617" y="123.76"/>
    </g>
    <g clip-path="url(#p4bfcc20012)">
     <use style="fill:none;stroke:#262626;stroke-width:0.5;" x="0.0" xlink:href="#C3_3_4b38a21b4e" y="123.76"/>
    </g>
    <g clip-path="url(#p4bfcc20012)">
     <use style="fill:none;stroke:#262626;stroke-width:0.5;" x="0.0" xlink:href="#C3_4_0035762d86" y="123.76"/>
    </g>
    <g clip-path="url(#p4bfcc20012)">
     <use style="fill:none;stroke:#262626;stroke-width:0.5;" x="0.0" xlink:href="#C3_5_ac9f73d32b" y="123.76"/>
    </g>
    <g clip-path="url(#p4bfcc20012)">
     <use style="fill:none;stroke:#262626;stroke-width:0.5;" x="0.0" xlink:href="#C3_6_49df64f9e7" y="123.76"/>
    </g>
    <g clip-path="url(#p4bfcc20012)">
     <use style="fill:none;stroke:#262626;stroke-width:0.5;" x="0.0" xlink:href="#C3_7_98fb809476" y="123.76"/>
    </g>
   </g>
   <g id="line2d_1">
    <defs>
     <path d="
M3 1.83697e-16
L-3 -1.83697e-16" id="m1b1a8e5f6b" style="stroke:#262626;stroke-width:0.5;"/>
    </defs>
    <g clip-path="url(#p4bfcc20012)">
     <use style="fill:#262626;stroke:#262626;stroke-width:0.5;" x="40.3691900065" xlink:href="#m1b1a8e5f6b" y="24.4995634082"/>
     <use style="fill:#262626;stroke:#262626;stroke-width:0.5;" x="58.1119646723" xlink:href="#m1b1a8e5f6b" y="24.717082813"/>
     <use style="fill:#262626;stroke:#262626;stroke-width:0.5;" x="75.8547393381" xlink:href="#m1b1a8e5f6b" y="25.1803710974"/>
     <use style="fill:#262626;stroke:#262626;stroke-width:0.5;" x="93.5975140039" xlink:href="#m1b1a8e5f6b" y="23.1288383205"/>
     <use style="fill:#262626;stroke:#262626;stroke-width:0.5;" x="111.34028867" xlink:href="#m1b1a8e5f6b" y="35.7143981136"/>
     <use style="fill:#262626;stroke:#262626;stroke-width:0.5;" x="129.083063335" xlink:href="#m1b1a8e5f6b" y="43.2442139187"/>
     <use style="fill:#262626;stroke:#262626;stroke-width:0.5;" x="146.825838001" xlink:href="#m1b1a8e5f6b" y="56.0849189539"/>
     <use style="fill:#262626;stroke:#262626;stroke-width:0.5;" x="164.568612667" xlink:href="#m1b1a8e5f6b" y="79.8074376133"/>
    </g>
   </g>
   <g id="line2d_2">
    <g clip-path="url(#p4bfcc20012)">
     <use style="fill:#262626;stroke:#262626;stroke-width:0.5;" x="40.3691900065" xlink:href="#m1b1a8e5f6b" y="21.6324199387"/>
     <use style="fill:#262626;stroke:#262626;stroke-width:0.5;" x="58.1119646723" xlink:href="#m1b1a8e5f6b" y="21.2748984544"/>
     <use style="fill:#262626;stroke:#262626;stroke-width:0.5;" x="75.8547393381" xlink:href="#m1b1a8e5f6b" y="24.7492736001"/>
     <use style="fill:#262626;stroke:#262626;stroke-width:0.5;" x="93.5975140039" xlink:href="#m1b1a8e5f6b" y="22.84330355"/>
     <use style="fill:#262626;stroke:#262626;stroke-width:0.5;" x="111.34028867" xlink:href="#m1b1a8e5f6b" y="33.7002924763"/>
     <use style="fill:#262626;stroke:#262626;stroke-width:0.5;" x="129.083063335" xlink:href="#m1b1a8e5f6b" y="42.1086915178"/>
     <use style="fill:#262626;stroke:#262626;stroke-width:0.5;" x="146.825838001" xlink:href="#m1b1a8e5f6b" y="34.9161315434"/>
     <use style="fill:#262626;stroke:#262626;stroke-width:0.5;" x="164.568612667" xlink:href="#m1b1a8e5f6b" y="69.4089768471"/>
    </g>
   </g>
   <g id="line2d_3"/>
   <g id="line2d_4">
    <g clip-path="url(#p4bfcc20012)">
     <use style="fill:#262626;stroke:#262626;stroke-width:0.5;" x="40.3691900065" xlink:href="#m1b1a8e5f6b" y="29.4661253926"/>
     <use style="fill:#262626;stroke:#262626;stroke-width:0.5;" x="58.1119646723" xlink:href="#m1b1a8e5f6b" y="26.6423160327"/>
     <use style="fill:#262626;stroke:#262626;stroke-width:0.5;" x="75.8547393381" xlink:href="#m1b1a8e5f6b" y="27.4138355002"/>
     <use style="fill:#262626;stroke:#262626;stroke-width:0.5;" x="93.5975140039" xlink:href="#m1b1a8e5f6b" y="34.9847324938"/>
     <use style="fill:#262626;stroke:#262626;stroke-width:0.5;" x="111.34028867" xlink:href="#m1b1a8e5f6b" y="45.5591454554"/>
     <use style="fill:#262626;stroke:#262626;stroke-width:0.5;" x="129.083063335" xlink:href="#m1b1a8e5f6b" y="50.0862022688"/>
     <use style="fill:#262626;stroke:#262626;stroke-width:0.5;" x="146.825838001" xlink:href="#m1b1a8e5f6b" y="85.805120225"/>
    </g>
   </g>
   <g id="line2d_5">
    <g clip-path="url(#p4bfcc20012)">
     <use style="fill:#262626;stroke:#262626;stroke-width:0.5;" x="40.3691900065" xlink:href="#m1b1a8e5f6b" y="29.2744142661"/>
     <use style="fill:#262626;stroke:#262626;stroke-width:0.5;" x="58.1119646723" xlink:href="#m1b1a8e5f6b" y="24.8084514574"/>
     <use style="fill:#262626;stroke:#262626;stroke-width:0.5;" x="75.8547393381" xlink:href="#m1b1a8e5f6b" y="26.8746300812"/>
     <use style="fill:#262626;stroke:#262626;stroke-width:0.5;" x="93.5975140039" xlink:href="#m1b1a8e5f6b" y="31.6239207616"/>
     <use style="fill:#262626;stroke:#262626;stroke-width:0.5;" x="111.34028867" xlink:href="#m1b1a8e5f6b" y="40.4744222096"/>
     <use style="fill:#262626;stroke:#262626;stroke-width:0.5;" x="129.083063335" xlink:href="#m1b1a8e5f6b" y="48.9527295168"/>
     <use style="fill:#262626;stroke:#262626;stroke-width:0.5;" x="146.825838001" xlink:href="#m1b1a8e5f6b" y="56.8457625125"/>
    </g>
   </g>
   <g id="line2d_6"/>
   <g id="line2d_7">
    <g clip-path="url(#p4bfcc20012)">
     <use style="fill:#262626;stroke:#262626;stroke-width:0.5;" x="40.3691900065" xlink:href="#m1b1a8e5f6b" y="24.4995634082"/>
     <use style="fill:#262626;stroke:#262626;stroke-width:0.5;" x="58.1119646723" xlink:href="#m1b1a8e5f6b" y="29.8679162449"/>
     <use style="fill:#262626;stroke:#262626;stroke-width:0.5;" x="75.8547393381" xlink:href="#m1b1a8e5f6b" y="31.2853366909"/>
     <use style="fill:#262626;stroke:#262626;stroke-width:0.5;" x="93.5975140039" xlink:href="#m1b1a8e5f6b" y="26.1479109059"/>
     <use style="fill:#262626;stroke:#262626;stroke-width:0.5;" x="111.34028867" xlink:href="#m1b1a8e5f6b" y="29.0235465377"/>
     <use style="fill:#262626;stroke:#262626;stroke-width:0.5;" x="129.083063335" xlink:href="#m1b1a8e5f6b" y="35.952025348"/>
     <use style="fill:#262626;stroke:#262626;stroke-width:0.5;" x="146.825838001" xlink:href="#m1b1a8e5f6b" y="39.8887892189"/>
     <use style="fill:#262626;stroke:#262626;stroke-width:0.5;" x="164.568612667" xlink:href="#m1b1a8e5f6b" y="87.1039382099"/>
    </g>
   </g>
   <g id="line2d_8">
    <g clip-path="url(#p4bfcc20012)">
     <use style="fill:#262626;stroke:#262626;stroke-width:0.5;" x="40.3691900065" xlink:href="#m1b1a8e5f6b" y="21.6324199387"/>
     <use style="fill:#262626;stroke:#262626;stroke-width:0.5;" x="58.1119646723" xlink:href="#m1b1a8e5f6b" y="24.0986572393"/>
     <use style="fill:#262626;stroke:#262626;stroke-width:0.5;" x="75.8547393381" xlink:href="#m1b1a8e5f6b" y="28.797062561"/>
     <use style="fill:#262626;stroke:#262626;stroke-width:0.5;" x="93.5975140039" xlink:href="#m1b1a8e5f6b" y="23.7995851695"/>
     <use style="fill:#262626;stroke:#262626;stroke-width:0.5;" x="111.34028867" xlink:href="#m1b1a8e5f6b" y="26.313553057"/>
     <use style="fill:#262626;stroke:#262626;stroke-width:0.5;" x="129.083063335" xlink:href="#m1b1a8e5f6b" y="29.1184935409"/>
     <use style="fill:#262626;stroke:#262626;stroke-width:0.5;" x="146.825838001" xlink:href="#m1b1a8e5f6b" y="36.650500371"/>
     <use style="fill:#262626;stroke:#262626;stroke-width:0.5;" x="164.568612667" xlink:href="#m1b1a8e5f6b" y="85.374930602"/>
    </g>
   </g>
   <g id="line2d_9"/>
   <g id="line2d_10">
    <g clip-path="url(#p4bfcc20012)">
     <use style="fill:#262626;stroke:#262626;stroke-width:0.5;" x="40.3691900065" xlink:href="#m1b1a8e5f6b" y="29.4661253926"/>
     <use style="fill:#262626;stroke:#262626;stroke-width:0.5;" x="58.1119646723" xlink:href="#m1b1a8e5f6b" y="53.6949922528"/>
     <use style="fill:#262626;stroke:#262626;stroke-width:0.5;" x="75.8547393381" xlink:href="#m1b1a8e5f6b" y="38.0110890473"/>
     <use style="fill:#262626;stroke:#262626;stroke-width:0.5;" x="93.5975140039" xlink:href="#m1b1a8e5f6b" y="33.8598497463"/>
     <use style="fill:#262626;stroke:#262626;stroke-width:0.5;" x="111.34028867" xlink:href="#m1b1a8e5f6b" y="45.3908181139"/>
     <use style="fill:#262626;stroke:#262626;stroke-width:0.5;" x="129.083063335" xlink:href="#m1b1a8e5f6b" y="36.6246125293"/>
     <use style="fill:#262626;stroke:#262626;stroke-width:0.5;" x="146.825838001" xlink:href="#m1b1a8e5f6b" y="43.5502206647"/>
     <use style="fill:#262626;stroke:#262626;stroke-width:0.5;" x="164.568612667" xlink:href="#m1b1a8e5f6b" y="71.1918136224"/>
    </g>
   </g>
   <g id="line2d_11">
    <g clip-path="url(#p4bfcc20012)">
     <use style="fill:#262626;stroke:#262626;stroke-width:0.5;" x="40.3691900065" xlink:href="#m1b1a8e5f6b" y="29.2744142661"/>
     <use style="fill:#262626;stroke:#262626;stroke-width:0.5;" x="58.1119646723" xlink:href="#m1b1a8e5f6b" y="30.7277560666"/>
     <use style="fill:#262626;stroke:#262626;stroke-width:0.5;" x="75.8547393381" xlink:href="#m1b1a8e5f6b" y="33.220576555"/>
     <use style="fill:#262626;stroke:#262626;stroke-width:0.5;" x="93.5975140039" xlink:href="#m1b1a8e5f6b" y="28.6604562032"/>
     <use style="fill:#262626;stroke:#262626;stroke-width:0.5;" x="111.34028867" xlink:href="#m1b1a8e5f6b" y="40.3800536901"/>
     <use style="fill:#262626;stroke:#262626;stroke-width:0.5;" x="129.083063335" xlink:href="#m1b1a8e5f6b" y="35.6605868696"/>
     <use style="fill:#262626;stroke:#262626;stroke-width:0.5;" x="146.825838001" xlink:href="#m1b1a8e5f6b" y="38.878969498"/>
     <use style="fill:#262626;stroke:#262626;stroke-width:0.5;" x="164.568612667" xlink:href="#m1b1a8e5f6b" y="70.3136505732"/>
    </g>
   </g>
   <g id="line2d_12"/>
   <g id="line2d_13">
    <path clip-path="url(#p4bfcc20012)" d="
M40.3692 23.066
L58.112 22.996
L75.8547 24.9648
L93.5975 22.9861
L111.34 34.7073
L129.083 42.6765
L146.826 45.5005
L164.569 74.6082" style="fill:none;stroke:#b58900;stroke-dasharray:2.000000,2.000000;stroke-dashoffset:0.0;stroke-linecap:round;stroke-width:0.75;"/>
    <defs>
     <path d="
M0 1.5
C0.397805 1.5 0.77937 1.34195 1.06066 1.06066
C1.34195 0.77937 1.5 0.397805 1.5 0
C1.5 -0.397805 1.34195 -0.77937 1.06066 -1.06066
C0.77937 -1.34195 0.397805 -1.5 0 -1.5
C-0.397805 -1.5 -0.77937 -1.34195 -1.06066 -1.06066
C-1.34195 -0.77937 -1.5 -0.397805 -1.5 0
C-1.5 0.397805 -1.34195 0.77937 -1.06066 1.06066
C-0.77937 1.34195 -0.397805 1.5 0 1.5
z
" id="mcd7242461b"/>
    </defs>
    <g clip-path="url(#p4bfcc20012)">
     <use style="fill:#b58900;" x="40.3691900065" xlink:href="#mcd7242461b" y="23.0659916735"/>
     <use style="fill:#b58900;" x="58.1119646723" xlink:href="#mcd7242461b" y="22.9959906337"/>
     <use style="fill:#b58900;" x="75.8547393381" xlink:href="#mcd7242461b" y="24.9648223488"/>
     <use style="fill:#b58900;" x="93.5975140039" xlink:href="#mcd7242461b" y="22.9860709352"/>
     <use style="fill:#b58900;" x="111.34028867" xlink:href="#mcd7242461b" y="34.707345295"/>
     <use style="fill:#b58900;" x="129.083063335" xlink:href="#mcd7242461b" y="42.6764527182"/>
     <use style="fill:#b58900;" x="146.825838001" xlink:href="#mcd7242461b" y="45.5005252487"/>
     <use style="fill:#b58900;" x="164.568612667" xlink:href="#mcd7242461b" y="74.6082072302"/>
    </g>
   </g>
   <g id="line2d_14">
    <path clip-path="url(#p4bfcc20012)" d="
M40.3692 29.3703
L58.112 25.7254
L75.8547 27.1442
L93.5975 33.3043
L111.34 43.0168
L129.083 49.5195
L146.826 71.3254" style="fill:none;stroke:#cb4b16;stroke-dasharray:2.000000,2.000000;stroke-dashoffset:0.0;stroke-linecap:round;stroke-width:0.75;"/>
    <defs>
     <path d="
M0 1.5
C0.397805 1.5 0.77937 1.34195 1.06066 1.06066
C1.34195 0.77937 1.5 0.397805 1.5 0
C1.5 -0.397805 1.34195 -0.77937 1.06066 -1.06066
C0.77937 -1.34195 0.397805 -1.5 0 -1.5
C-0.397805 -1.5 -0.77937 -1.34195 -1.06066 -1.06066
C-1.34195 -0.77937 -1.5 -0.397805 -1.5 0
C-1.5 0.397805 -1.34195 0.77937 -1.06066 1.06066
C-0.77937 1.34195 -0.397805 1.5 0 1.5
z
" id="m3b02f7a99e"/>
    </defs>
    <g clip-path="url(#p4bfcc20012)">
     <use style="fill:#cb4b16;" x="40.3691900065" xlink:href="#m3b02f7a99e" y="29.3702698294"/>
     <use style="fill:#cb4b16;" x="58.1119646723" xlink:href="#m3b02f7a99e" y="25.725383745"/>
     <use style="fill:#cb4b16;" x="75.8547393381" xlink:href="#m3b02f7a99e" y="27.1442327907"/>
     <use style="fill:#cb4b16;" x="93.5975140039" xlink:href="#m3b02f7a99e" y="33.3043266277"/>
     <use style="fill:#cb4b16;" x="111.34028867" xlink:href="#m3b02f7a99e" y="43.0167838325"/>
     <use style="fill:#cb4b16;" x="129.083063335" xlink:href="#m3b02f7a99e" y="49.5194658928"/>
     <use style="fill:#cb4b16;" x="146.825838001" xlink:href="#m3b02f7a99e" y="71.3254413688"/>
    </g>
   </g>
   <g id="line2d_15">
    <path clip-path="url(#p4bfcc20012)" d="
M40.3692 23.066
L58.112 26.9833
L75.8547 30.0412
L93.5975 24.9737
L111.34 27.6685
L129.083 32.5353
L146.826 38.2696
L164.569 86.2394" style="fill:none;stroke:#6c71c4;stroke-dasharray:2.000000,2.000000;stroke-dashoffset:0.0;stroke-linecap:round;stroke-width:0.75;"/>
    <defs>
     <path d="
M0 1.5
C0.397805 1.5 0.77937 1.34195 1.06066 1.06066
C1.34195 0.77937 1.5 0.397805 1.5 0
C1.5 -0.397805 1.34195 -0.77937 1.06066 -1.06066
C0.77937 -1.34195 0.397805 -1.5 0 -1.5
C-0.397805 -1.5 -0.77937 -1.34195 -1.06066 -1.06066
C-1.34195 -0.77937 -1.5 -0.397805 -1.5 0
C-1.5 0.397805 -1.34195 0.77937 -1.06066 1.06066
C-0.77937 1.34195 -0.397805 1.5 0 1.5
z
" id="m2fa91e8e87"/>
    </defs>
    <g clip-path="url(#p4bfcc20012)">
     <use style="fill:#6c71c4;" x="40.3691900065" xlink:href="#m2fa91e8e87" y="23.0659916735"/>
     <use style="fill:#6c71c4;" x="58.1119646723" xlink:href="#m2fa91e8e87" y="26.9832867421"/>
     <use style="fill:#6c71c4;" x="75.8547393381" xlink:href="#m2fa91e8e87" y="30.041199626"/>
     <use style="fill:#6c71c4;" x="93.5975140039" xlink:href="#m2fa91e8e87" y="24.9737480377"/>
     <use style="fill:#6c71c4;" x="111.34028867" xlink:href="#m2fa91e8e87" y="27.6685497973"/>
     <use style="fill:#6c71c4;" x="129.083063335" xlink:href="#m2fa91e8e87" y="32.5352594444"/>
     <use style="fill:#6c71c4;" x="146.825838001" xlink:href="#m2fa91e8e87" y="38.269644795"/>
     <use style="fill:#6c71c4;" x="164.568612667" xlink:href="#m2fa91e8e87" y="86.2394344059"/>
    </g>
   </g>
   <g id="line2d_16">
    <path clip-path="url(#p4bfcc20012)" d="
M40.3692 29.3703
L58.112 42.2114
L75.8547 35.6158
L93.5975 31.2602
L111.34 42.8854
L129.083 36.1426
L146.826 41.2146
L164.569 70.7527" style="fill:none;stroke:#268bd2;stroke-dasharray:2.000000,2.000000;stroke-dashoffset:0.0;stroke-linecap:round;stroke-width:0.75;"/>
    <defs>
     <path d="
M0 1.5
C0.397805 1.5 0.77937 1.34195 1.06066 1.06066
C1.34195 0.77937 1.5 0.397805 1.5 0
C1.5 -0.397805 1.34195 -0.77937 1.06066 -1.06066
C0.77937 -1.34195 0.397805 -1.5 0 -1.5
C-0.397805 -1.5 -0.77937 -1.34195 -1.06066 -1.06066
C-1.34195 -0.77937 -1.5 -0.397805 -1.5 0
C-1.5 0.397805 -1.34195 0.77937 -1.06066 1.06066
C-0.77937 1.34195 -0.397805 1.5 0 1.5
z
" id="mafa19be487"/>
    </defs>
    <g clip-path="url(#p4bfcc20012)">
     <use style="fill:#268bd2;" x="40.3691900065" xlink:href="#mafa19be487" y="29.3702698294"/>
     <use style="fill:#268bd2;" x="58.1119646723" xlink:href="#mafa19be487" y="42.2113741597"/>
     <use style="fill:#268bd2;" x="75.8547393381" xlink:href="#mafa19be487" y="35.6158328011"/>
     <use style="fill:#268bd2;" x="93.5975140039" xlink:href="#mafa19be487" y="31.2601529747"/>
     <use style="fill:#268bd2;" x="111.34028867" xlink:href="#mafa19be487" y="42.885435902"/>
     <use style="fill:#268bd2;" x="129.083063335" xlink:href="#mafa19be487" y="36.1425996994"/>
     <use style="fill:#268bd2;" x="146.825838001" xlink:href="#mafa19be487" y="41.2145950814"/>
     <use style="fill:#268bd2;" x="164.568612667" xlink:href="#mafa19be487" y="70.7527320978"/>
    </g>
   </g>
   <g id="patch_3">
    <path d="
M31.4978 7.57505
L173.44 7.57505" style="fill:none;stroke:#000000;stroke-linecap:square;stroke-linejoin:miter;stroke-width:0.5;"/>
   </g>
   <g id="patch_4">
    <path d="
M173.44 98.2598
L173.44 7.57505" style="fill:none;stroke:#000000;stroke-linecap:square;stroke-linejoin:miter;stroke-width:0.5;"/>
   </g>
   <g id="patch_5">
    <path d="
M31.4978 98.2598
L173.44 98.2598" style="fill:none;stroke:#000000;stroke-linecap:square;stroke-linejoin:miter;stroke-width:0.5;"/>
   </g>
   <g id="patch_6">
    <path d="
M31.4978 98.2598
L31.4978 7.57505" style="fill:none;stroke:#000000;stroke-linecap:square;stroke-linejoin:miter;stroke-width:0.5;"/>
   </g>
   <g id="matplotlib.axis_1">
    <g id="xtick_1">
     <g id="line2d_17">
      <defs>
       <path d="
M0 0
L0 -4" id="m93b0483c22" style="stroke:#000000;stroke-width:0.5;"/>
      </defs>
      <g>
       <use style="stroke:#000000;stroke-width:0.5;" x="40.3691900065" xlink:href="#m93b0483c22" y="98.2597869318"/>
      </g>
     </g>
     <g id="line2d_18">
      <defs>
       <path d="
M0 0
L0 4" id="m741efc42ff" style="stroke:#000000;stroke-width:0.5;"/>
      </defs>
      <g>
       <use style="stroke:#000000;stroke-width:0.5;" x="40.3691900065" xlink:href="#m741efc42ff" y="7.57505326705"/>
      </g>
     </g>
     <g id="text_1">
      <!-- 0.0 -->
      <defs>
       <path d="
M12.4062 11.625
C9.40625 11.625 6.70312 8.8125 6.70312 5.8125
C6.70312 2.79688 9.40625 0 12.2969 0
C15.5 0 18.2969 2.70312 18.2969 5.8125
C18.2969 8.8125 15.5 11.625 12.4062 11.625" id="URW_Palladio_L_Roman-46"/>
       <path d="
M26.2969 69
C10.7969 69 2.90625 56.6875 2.90625 32.4531
C2.90625 20.7188 5 10.625 8.5 5.71875
C12 0.796875 17.5938 -2 23.7969 -2
C38.9062 -2 46.5 11.0156 46.5 36.6562
C46.5 58.5781 40 69 26.2969 69
M24.5 65.5
C34.2031 65.5 38.0938 55.6875 38.0938 31.6406
C38.0938 10.3281 34.2969 1.5 25.0938 1.5
C15.4062 1.5 11.2969 11.625 11.2969 36.0625
C11.2969 57.1875 15 65.5 24.5 65.5" id="URW_Palladio_L_Roman-48"/>
      </defs>
      <g transform="translate(35.3878699567 106.962370748)scale(0.08 -0.08)">
       <use transform="scale(0.996264009963)" xlink:href="#URW_Palladio_L_Roman-48"/>
       <use transform="translate(49.8132004981 0.0)scale(0.996264009963)" xlink:href="#URW_Palladio_L_Roman-46"/>
       <use transform="translate(74.7198007472 0.0)scale(0.996264009963)" xlink:href="#URW_Palladio_L_Roman-48"/>
      </g>
     </g>
    </g>
    <g id="xtick_2">
     <g id="line2d_19">
      <g>
       <use style="stroke:#000000;stroke-width:0.5;" x="58.1119646723" xlink:href="#m93b0483c22" y="98.2597869318"/>
      </g>
     </g>
     <g id="line2d_20">
      <g>
       <use style="stroke:#000000;stroke-width:0.5;" x="58.1119646723" xlink:href="#m741efc42ff" y="7.57505326705"/>
      </g>
     </g>
     <g id="text_2">
      <!-- 0.03 -->
      <defs>
       <path d="
M4.29688 49.9531
L7.40625 49.9531
L9.20312 55.5312
C10.2969 58.9062 16.5938 62.2969 21.7969 62.2969
C28.2969 62.2969 33.5938 57.0156 33.5938 50.75
C33.5938 43.2812 27.7031 37 20.5938 37
C19.7969 37 18.7031 37.0938 17.4062 37.2031
L15.9062 37.2031
L14.7031 31.9844
L15.4062 31.375
C19.2031 33.0938 21.0938 33.5938 23.7969 33.5938
C32.0938 33.5938 36.9062 28.2656 36.9062 19.0938
C36.9062 8.84375 30.7969 2.10938 21.5 2.10938
C16.9062 2.10938 12.7969 3.60938 9.79688 6.42188
C7.40625 8.64062 6.09375 10.9531 4.20312 16.3906
L1.5 15.3906
C3.59375 9.26562 4.40625 5.64062 5 0.609375
C10.2969 -1.20312 14.7031 -2 18.4062 -2
C26.4062 -2 35.5938 2.51562 41.0938 9.26562
C44.5 13.375 46.2031 17.8125 46.2031 22.5312
C46.2031 27.3594 44.2031 31.5938 40.5938 34.0938
C38.0938 35.9062 35.7969 36.7188 30.7969 37.6094
C38.7969 43.7969 41.7969 48.375 41.7969 54.25
C41.7969 63.125 34.4062 69 23.2969 69
C16.5 69 12 67.1094 7.20312 62.3281
z
" id="URW_Palladio_L_Roman-51"/>
      </defs>
      <g transform="translate(51.1381166025 106.962370748)scale(0.08 -0.08)">
       <use transform="scale(0.996264009963)" xlink:href="#URW_Palladio_L_Roman-48"/>
       <use transform="translate(49.8132004981 0.0)scale(0.996264009963)" xlink:href="#URW_Palladio_L_Roman-46"/>
       <use transform="translate(74.7198007472 0.0)scale(0.996264009963)" xlink:href="#URW_Palladio_L_Roman-48"/>
       <use transform="translate(124.533001245 0.0)scale(0.996264009963)" xlink:href="#URW_Palladio_L_Roman-51"/>
      </g>
     </g>
    </g>
    <g id="xtick_3">
     <g id="line2d_21">
      <g>
       <use style="stroke:#000000;stroke-width:0.5;" x="75.8547393381" xlink:href="#m93b0483c22" y="98.2597869318"/>
      </g>
     </g>
     <g id="line2d_22">
      <g>
       <use style="stroke:#000000;stroke-width:0.5;" x="75.8547393381" xlink:href="#m741efc42ff" y="7.57505326705"/>
      </g>
     </g>
     <g id="text_3">
      <!-- 0.1 -->
      <defs>
       <path d="
M6.70312 56
L7.70312 56
L20.5938 61.4062
C20.7031 61.5 20.7969 61.5 20.9062 61.5
C21.5 61.5 21.7031 60.6094 21.7031 58.2031
L21.7031 9.53125
C21.7031 4.29688 20.5938 3.20312 15.2031 3.20312
L9.59375 3.20312
L9.59375 0
C25 0 25 0 26.0938 0
C27.4062 0 29.5938 0 33 0
C34.2031 0 37.7031 0 41.7969 0
L41.7969 3.20312
L36.5938 3.20312
C31.0938 3.20312 30.0938 4.29688 30.0938 9.53125
L30.0938 69.0156
L28.7031 69.5156
C22.2031 66.1406 15.0938 63.1875 6 60.0156
z
" id="URW_Palladio_L_Roman-49"/>
      </defs>
      <g transform="translate(70.8734192883 106.962370748)scale(0.08 -0.08)">
       <use transform="scale(0.996264009963)" xlink:href="#URW_Palladio_L_Roman-48"/>
       <use transform="translate(49.8132004981 0.0)scale(0.996264009963)" xlink:href="#URW_Palladio_L_Roman-46"/>
       <use transform="translate(74.7198007472 0.0)scale(0.996264009963)" xlink:href="#URW_Palladio_L_Roman-49"/>
      </g>
     </g>
    </g>
    <g id="xtick_4">
     <g id="line2d_23">
      <g>
       <use style="stroke:#000000;stroke-width:0.5;" x="93.5975140039" xlink:href="#m93b0483c22" y="98.2597869318"/>
      </g>
     </g>
     <g id="line2d_24">
      <g>
       <use style="stroke:#000000;stroke-width:0.5;" x="93.5975140039" xlink:href="#m741efc42ff" y="7.57505326705"/>
      </g>
     </g>
     <g id="text_4">
      <!-- 0.3 -->
      <g transform="translate(88.6161939541 106.962370748)scale(0.08 -0.08)">
       <use transform="scale(0.996264009963)" xlink:href="#URW_Palladio_L_Roman-48"/>
       <use transform="translate(49.8132004981 0.0)scale(0.996264009963)" xlink:href="#URW_Palladio_L_Roman-46"/>
       <use transform="translate(74.7198007472 0.0)scale(0.996264009963)" xlink:href="#URW_Palladio_L_Roman-51"/>
      </g>
     </g>
    </g>
    <g id="xtick_5">
     <g id="line2d_25">
      <g>
       <use style="stroke:#000000;stroke-width:0.5;" x="111.34028867" xlink:href="#m93b0483c22" y="98.2597869318"/>
      </g>
     </g>
     <g id="line2d_26">
      <g>
       <use style="stroke:#000000;stroke-width:0.5;" x="111.34028867" xlink:href="#m741efc42ff" y="7.57505326705"/>
      </g>
     </g>
     <g id="text_5">
      <!-- 0.9 -->
      <defs>
       <path d="
M9.59375 -1.65625
C20.7031 1.95312 25.5 4.25 30.9062 8.84375
C40.5938 17.1562 45.7031 28.6719 45.7031 42.0781
C45.7031 59 37.5938 69.2969 24.4062 69.2969
C11.5938 69.2969 2 59.2969 2 45.9062
C2 34.3906 9.5 26 19.9062 26
C23.2969 26 27.2031 27.0938 29 28.5938
L36 34.4062
C35.2031 17.5781 24.2969 5.25 6.20312 0.84375
L6.20312 0.046875
z

M24 66
C28.5 66 31.7969 64.0938 34 60.0938
C35.7969 56.8906 37 52 37 47.5
C37 38.2969 31.7031 32.1094 24 32.1094
C16 32.1094 10.5938 39.2031 10.5938 49.5938
C10.5938 59.7031 15.7969 66 24 66" id="URW_Palladio_L_Roman-57"/>
      </defs>
      <g transform="translate(106.35896862 106.962370748)scale(0.08 -0.08)">
       <use transform="scale(0.996264009963)" xlink:href="#URW_Palladio_L_Roman-48"/>
       <use transform="translate(49.8132004981 0.0)scale(0.996264009963)" xlink:href="#URW_Palladio_L_Roman-46"/>
       <use transform="translate(74.7198007472 0.0)scale(0.996264009963)" xlink:href="#URW_Palladio_L_Roman-57"/>
      </g>
     </g>
    </g>
    <g id="xtick_6">
     <g id="line2d_27">
      <g>
       <use style="stroke:#000000;stroke-width:0.5;" x="129.083063335" xlink:href="#m93b0483c22" y="98.2597869318"/>
      </g>
     </g>
     <g id="line2d_28">
      <g>
       <use style="stroke:#000000;stroke-width:0.5;" x="129.083063335" xlink:href="#m741efc42ff" y="7.57505326705"/>
      </g>
     </g>
     <g id="text_6">
      <!-- 2.7 -->
      <defs>
       <path d="
M5.59375 0.5
L6.5 -0.796875
C10.4062 -0.5 10.4062 -0.5 11.0938 -0.5
C11.7969 -0.5 11.7969 -0.5 15.7031 -0.796875
C19.9062 10.1406 24.7969 20.5781 31.4062 32.6094
L49.7031 65.6094
L49.7031 68.3125
C38.9062 68.3125 35.4062 68.3125 27.2969 68.3125
C20 68.3125 15.0938 68.3125 5.40625 68.3125
L4.40625 68.1094
C4.70312 58.5938 4.70312 58.5938 4.70312 57.5781
C4.70312 56.4688 4.70312 56.4688 4.40625 47.3594
L7.40625 47.3594
L8.09375 52.9688
C8.90625 59.2031 9.59375 60 14.2031 60
L40.9062 60
C36.9062 51.7656 33.7969 45.9531 30 39.8281
z
" id="URW_Palladio_L_Roman-55"/>
       <path d="
M1.59375 2.51562
L1.59375 0
C20.2969 0 20.2969 0.203125 23.9062 0.203125
C27.5 0.203125 27.5 0 46.7969 0
C46.5938 1.95312 46.5938 2.90625 46.5938 4.20312
C46.5938 5.4375 46.5938 6.35938 46.7969 8.42188
C35.2969 8.42188 30.7031 8.42188 12.2031 8.42188
L30.4062 27.5156
C40.0938 37.7188 43.0938 43.1719 43.0938 50.5938
C43.0938 61.9688 35.2969 69 22.5938 69
C15.4062 69 10.5 67 5.59375 62.0156
L3.90625 48.4219
L6.79688 48.4219
L8.09375 53.0156
C9.70312 58.7969 13.2969 61.2969 20 61.2969
C28.5938 61.2969 34.0938 55.8906 34.0938 47.4219
C34.0938 39.9375 29.9062 32.5625 18.5938 20.5781
z
" id="URW_Palladio_L_Roman-50"/>
      </defs>
      <g transform="translate(124.101743286 106.962370748)scale(0.08 -0.08)">
       <use transform="scale(0.996264009963)" xlink:href="#URW_Palladio_L_Roman-50"/>
       <use transform="translate(49.8132004981 0.0)scale(0.996264009963)" xlink:href="#URW_Palladio_L_Roman-46"/>
       <use transform="translate(74.7198007472 0.0)scale(0.996264009963)" xlink:href="#URW_Palladio_L_Roman-55"/>
      </g>
     </g>
    </g>
    <g id="xtick_7">
     <g id="line2d_29">
      <g>
       <use style="stroke:#000000;stroke-width:0.5;" x="146.825838001" xlink:href="#m93b0483c22" y="98.2597869318"/>
      </g>
     </g>
     <g id="line2d_30">
      <g>
       <use style="stroke:#000000;stroke-width:0.5;" x="146.825838001" xlink:href="#m741efc42ff" y="7.57505326705"/>
      </g>
     </g>
     <g id="text_7">
      <!-- 8.0 -->
      <defs>
       <path d="
M16.7969 34.5469
C12.7031 32.6562 11 31.5469 8.79688 29.4375
C5 25.6406 3 21.125 3 15.9375
C3 5.60938 11.2969 -2 22.5938 -2
C35.5938 -2 46.4062 8.21875 46.4062 20.625
C46.4062 28.6406 42.7031 32.9531 31.2969 38.1562
C40.4062 44.375 43.5938 48.5781 43.5938 54.5781
C43.5938 63.1875 36.5 69 25.9062 69
C14 69 5.29688 61.3906 5.29688 50.8906
C5.29688 44.0781 8 40.2656 16.7969 34.5469
M28.4062 29.5469
C34.7031 26.7344 38.5 21.8281 38.5 16.4375
C38.5 8.01562 32.2031 1.40625 24.0938 1.40625
C15.5938 1.40625 10.0938 7.42188 10.0938 16.7344
C10.0938 24.0312 13 28.6406 20.4062 33.1562
z

M22.2969 42.375
C16 45.4688 12.7969 49.4844 12.7969 54.4844
C12.7969 61.0938 17.5938 65.5938 24.7031 65.5938
C32 65.5938 36.7969 60.7969 36.7969 53.4688
C36.7969 47.7812 34.2969 43.875 27.7969 39.6562
z
" id="URW_Palladio_L_Roman-56"/>
      </defs>
      <g transform="translate(141.844517951 106.962370748)scale(0.08 -0.08)">
       <use transform="scale(0.996264009963)" xlink:href="#URW_Palladio_L_Roman-56"/>
       <use transform="translate(49.8132004981 0.0)scale(0.996264009963)" xlink:href="#URW_Palladio_L_Roman-46"/>
       <use transform="translate(74.7198007472 0.0)scale(0.996264009963)" xlink:href="#URW_Palladio_L_Roman-48"/>
      </g>
     </g>
    </g>
    <g id="xtick_8">
     <g id="line2d_31">
      <g>
       <use style="stroke:#000000;stroke-width:0.5;" x="164.568612667" xlink:href="#m93b0483c22" y="98.2597869318"/>
      </g>
     </g>
     <g id="line2d_32">
      <g>
       <use style="stroke:#000000;stroke-width:0.5;" x="164.568612667" xlink:href="#m741efc42ff" y="7.57505326705"/>
      </g>
     </g>
     <g id="text_8">
      <!-- 24.0 -->
      <defs>
       <path d="
M28 18
L28 10.5156
C28 4.51562 26.9062 3.10938 22 3.10938
L15.7969 3.10938
L15.7969 0
C29.0938 0 29.0938 0.203125 31.5 0.203125
C33.9062 0.203125 33.9062 0 47.2031 0
L47.2031 3.10938
L42.4062 3.10938
C37.5 3.10938 36.4062 4.40625 36.4062 10.4531
L36.4062 18
C42.2969 18 44.4062 18 47.2031 17.7031
L47.2031 24.8125
C42.5 24.4219 40.5938 24.4219 39.0938 24.4219
L38.7969 24.4219
L36.4062 24.4219
L36.4062 38.3906
C36.4062 56.25 36.5938 64.875 37.0938 69
L35.9062 69.5
L28.5 66.7969
L0.203125 20.2969
L1.29688 18
z

M28 24.4219
L6.5 24.4219
L28 59.7812
z
" id="URW_Palladio_L_Roman-52"/>
      </defs>
      <g transform="translate(157.594764597 106.962370748)scale(0.08 -0.08)">
       <use transform="scale(0.996264009963)" xlink:href="#URW_Palladio_L_Roman-50"/>
       <use transform="translate(49.8132004981 0.0)scale(0.996264009963)" xlink:href="#URW_Palladio_L_Roman-52"/>
       <use transform="translate(99.6264009963 0.0)scale(0.996264009963)" xlink:href="#URW_Palladio_L_Roman-46"/>
       <use transform="translate(124.533001245 0.0)scale(0.996264009963)" xlink:href="#URW_Palladio_L_Roman-48"/>
      </g>
     </g>
    </g>
    <g id="text_9">
     <!-- Drug Concentration ($\mu$M) -->
     <defs>
      <path d="
M27.9062 47
C13.2969 47 3.20312 36.6719 3.20312 21.75
C3.20312 7.60938 12.0938 -2 25 -2
C40.4062 -2 51.4062 8.71875 51.4062 23.75
C51.4062 37.2812 41.5938 47 27.9062 47
M26.0938 43.6875
C35.2969 43.6875 42.0938 33.6719 42.0938 20.0469
C42.0938 8.51562 37 1.29688 28.9062 1.29688
C19.0938 1.29688 12.5 10.9219 12.5 25.1562
C12.5 37.1719 17.2969 43.6875 26.0938 43.6875" id="URW_Palladio_L_Roman-111"/>
      <path d="
M51.9062 38
L54.4062 42.1094
L54 43.1094
L39.7969 43.1094
C36.0938 45.8906 32.5 47 27.5938 47
C23.2031 47 18.0938 45.625 14 43.25
C8.40625 40.1094 5.5 35.2812 5.5 29.2812
C5.5 22 10.0938 16.9844 17.5 16.1875
L9.59375 10
C8.59375 8.48438 8.09375 7.17188 8.09375 5.64062
C8.09375 2.8125 9.90625 1.1875 14.7031 -0.21875
L6 -4.9375
C4.59375 -5.73438 3.20312 -9.4375 3.20312 -12.5469
C3.20312 -21.6875 12.0938 -28 24.7969 -28
C39.9062 -28 51.7969 -18.4688 51.7969 -6.23438
C51.7969 0.984375 47 6 40 6
L24 6
C18.7969 6 16.4062 7.21875 16.4062 9.96875
C16.4062 11.3125 17.2031 12.4219 19.7969 14.6719
C20.4062 15.1719 20.5938 15.3906 21 15.7969
C22 15.6875 22.5938 15.5938 23.4062 15.5938
C27.7031 15.5938 33 17.4688 37.0938 20.3125
C41.5938 23.5469 43.7969 27.4844 43.7969 32.7031
C43.7969 34.6562 43.5 35.9375 42.7031 38
z

M24 43.5938
C30.7969 43.5938 35.4062 38.0938 35.4062 29.7656
C35.4062 23.4219 31.2031 19 25.0938 19
C18.4062 19 13.9062 24.0938 13.9062 31.6406
C13.9062 39.1719 17.5938 43.5938 24 43.5938
M28.7031 -1.01562
C40 -1.01562 43.9062 -3.3125 43.9062 -9.84375
C43.9062 -18.4688 36 -24.8906 25.5 -24.8906
C16.7969 -24.8906 10.7969 -19.7812 10.7969 -12.3438
C10.7969 -7.84375 13.4062 -3.71875 17.4062 -2.01562
C19 -1.21875 21.7969 -1.01562 28.7031 -1.01562" id="URW_Palladio_L_Roman-103"/>
      <path d="
M43.7031 6.98438
L42.4062 7.98438
C36 4.20312 33.7031 3.3125 29.4062 3.3125
C22.9062 3.3125 17.5 6.21875 14.7031 11.1094
C12.7969 14.3906 12.0938 17.2031 11.9062 23
L26.5 23
C33.4062 23 37.7031 23 44.5938 24.125
C44.7031 25.5312 44.7969 26.4531 44.7969 27.6719
C44.7969 39.375 37.4062 47 26.2031 47
C22.5 47 18.2031 45.6875 14.0938 43.2812
C5.90625 38.5781 2.59375 32.3594 2.59375 21.9375
C2.59375 15.625 4.09375 10.2188 6.79688 6.40625
C10.7969 1.10938 17.5 -2 25 -2
C28.7031 -2 32.4062 -1.20312 36.5 0.578125
C39.2031 1.6875 41.2969 2.98438 41.7031 3.59375
z

M35.9062 26.4062
C30.7031 26.4062 28.2969 26.4062 24.7031 26.4062
C20.0938 26.4062 17.5 26.4062 12.0938 26.9062
C12.0938 31.6719 12.5 33.8906 13.7969 36.5156
C15.9062 40.9688 20.2031 43.6875 25 43.6875
C28.2969 43.6875 30.9062 42.3594 32.7031 39.5938
C34.9062 36.2344 35.5938 33.2656 35.9062 26.4062" id="URW_Palladio_L_Roman-101"/>
      <path d="
M2.29688 40.0781
L6 40.0781
C10 40.0781 10.4062 39.375 10.4062 32.7188
L10.4062 10.0469
C10.4062 3.70312 10.0938 3 6.70312 3
L2.09375 3
L2.09375 -0.109375
C9.29688 -0.109375 11.9062 -0.109375 14.4062 -0.109375
C16.4062 -0.109375 16.4062 -0.109375 28.7031 -0.109375
L28.7031 3
L23.5 3
C19 3 18.7969 3.29688 18.7969 9.96875
L18.7969 27.3594
C18.7969 33.4219 22.7969 38.4844 27.7031 38.4844
C30.7031 38.4844 32.7969 37.0781 34.4062 33.8906
L36.5 33.8906
L37.4062 45.8906
C36.2969 46.5938 34.5 47 32.7031 47
C29.7031 47 26.5 45.3906 24.4062 42.8906
L18.7969 36.2812
L18.7969 46.5938
L17.9062 47
C12.7969 44.8906 7.59375 43.4844 2.29688 42.8906
z
" id="URW_Palladio_L_Roman-114"/>
      <path d="
M50.2969 47.0156
L49.4062 47.4219
C44.2969 45.3125 39.0938 43.9062 33.7969 43.3125
L33.7969 40.5
L37.5 40.5
C41.5 40.5 41.9062 39.7969 41.9062 33.1406
L41.9062 16.7188
C41.9062 14.5 40.5 11.6719 38.2031 9.35938
C35.4062 6.53125 32.2031 5.10938 28.2969 5.10938
C24.7969 5.10938 22 6.21875 20.4062 8.14062
C19 9.75 18.2969 12.875 18.2969 17.2969
L18.2969 47.0156
L17.4062 47.4219
C12.2969 45.3125 7.09375 43.9062 1.79688 43.3125
L1.79688 40.5
L5.5 40.5
C9.5 40.5 9.90625 39.7969 9.90625 33.1562
L9.90625 16.2344
C9.90625 9.17188 10.5 6.04688 12.2969 3.54688
C14.5 0.515625 18.2969 -1 24 -1
C28.5 -1 32.5 0.40625 35.2031 2.90625
L41.9062 9.14062
C41.9062 6.26562 41.7969 4.65625 41.5 0
C48.2031 0 48.2969 0 49.7969 0
C51.2031 0 51.2031 0 58.0938 0
L58.0938 2.90625
L54 3.3125
C50.5938 3.3125 50.2969 3.92188 50.2969 10.375
z
" id="URW_Palladio_L_Roman-117"/>
      <path d="
M9.79688 38.6875
L9.79688 9.67188
C9.79688 2.21875 13.0938 -1 20.7969 -1
C23.0938 -1 25.5 -0.5 26.0938 0.203125
L30.9062 5.51562
L29.5938 7.23438
C27.0938 5.8125 25.5938 5.3125 23.7031 5.3125
C19.7969 5.3125 18.2031 7.34375 18.2031 12.3125
L18.2031 38.8906
L31 38.8906
L31.9062 44
L18.2031 44
L18.2031 47.75
C18.2031 51.8906 18.5 55.4219 19.2969 61.7344
L18.0938 62.8281
C15.7031 61.3281 12.7031 60.0312 9.59375 59.0312
C9.90625 56.0156 10 54.1094 10 51.1094
L10 44.0938
L2.20312 40.5938
L2.20312 38.6875
z
" id="URW_Palladio_L_Roman-116"/>
      <path d="
M39.9062 31.1562
C39.9062 35.7656 40.4062 39.875 41.2969 43.4844
C37.2969 45.8906 33.7969 47 29.7031 47
C24.9062 47 19.2969 45.0938 13.2969 41.2812
C6.29688 36.875 2.59375 29.8594 2.59375 21.0469
C2.59375 7.51562 12.0938 -2 25.5 -2
C30.7031 -2 38.2031 -0.09375 39.2031 1.40625
L41.2969 4.60938
L40.2969 6.10938
C36.5938 4.10938 33.4062 3.20312 29.7969 3.20312
C18.7031 3.20312 11.4062 11.8281 11.4062 25.0469
C11.4062 35.7656 16.4062 41.7812 25.4062 41.7812
C29.7969 41.7812 34.5938 39.7812 36.4062 37.2812
L37.0938 31.1562
z
" id="URW_Palladio_L_Roman-99"/>
      <path d="
M67 8.40625
L66.0938 9.42188
C59.9062 5.40625 53 3.40625 45.4062 3.40625
C25.9062 3.40625 12.9062 16.4219 12.9062 36.1406
C12.9062 54.5781 24.2969 66.7812 41.5 66.7812
C51.2969 66.7812 61.4062 62.7812 61.4062 58.8906
L61.4062 51.6719
L64.5 51.6719
C64.5938 56.6719 65 60.2656 66.4062 66.875
C57.9062 69.6875 50.5938 71 43.2969 71
C34.5938 71 26.2969 68.8906 19.5938 64.9844
C8.20312 58.2812 2.20312 47.7656 2.20312 34.25
C2.20312 12.6094 18 -2 41.5 -2
C49.7969 -2 57.2969 -0.203125 64.2031 3.39062
z
" id="URW_Palladio_L_Roman-67"/>
      <path d="
M73.2031 12.2344
C73.2031 4.3125 72.7969 3.60938 68.0938 3.20312
L64.7031 2.90625
L64.7031 0
C69.2969 0 72.2969 0 77.5 0
C83.0938 0 86.7031 0 92.5938 0
L92.5938 3.20312
L87.7969 3.20312
C83.2031 3.20312 82.7031 4 82.7031 11.9688
L82.7031 57.2344
C82.7031 65.0938 83.2031 66 87.7969 66
L92 66.5
L92 69.3125
C84.4062 69.3125 84.4062 69.3125 82.7031 69.3125
C81.2031 69.3125 81.2031 69.3125 73.2031 69.3125
L47 13.8125
L20.5938 69.3125
C12.5938 69.3125 12.5938 69.3125 11.0938 69.3125
C9.59375 69.3125 9.59375 69.3125 1.59375 69.3125
L1.59375 66.2031
L6 66.2031
C10.5938 66.2031 11.0938 65.2812 11.0938 57.4062
L11.0938 12
C11.0938 4.10938 10.5938 3.20312 6 3.20312
L1.59375 3.20312
L1.59375 0
C11.5 0 11.5 0.203125 13.2031 0.203125
C14.7031 0.203125 14.7031 0 25.2031 0
L25.2031 3.20312
L20.7969 3.20312
C16.2031 3.20312 15.7031 4.09375 15.7031 11.9688
L15.7031 58.0938
L43.5938 -1
L45.5938 -1
C46.2969 0.5 46.9062 2.09375 47.5 3.59375
C49.0938 7.5 50.2969 10.2812 51 11.6875
L68.7969 49.4844
C70.2031 52.3906 71.4062 54.6875 73.2031 58.0938
z
" id="URW_Palladio_L_Roman-77"/>
      <path d="
M30.0938 -19.4375
C22.9062 -10.5156 20.2969 -5.71875 17.7031 3.3125
C15.5938 10.5156 14.5938 18.1406 14.5938 26.6562
C14.5938 34.9688 15.5938 42.0781 17.5 48.5938
C20.0938 56.9062 22.7969 61.625 30.0938 70.1406
L28.2031 72.75
C17.7969 63.4219 13.7031 57.9219 9.90625 48.0938
C7.29688 41.375 6 34.2656 6 26.6562
C6 15.9375 8.5 5.8125 13.2969 -3.20312
C16.7969 -9.92188 20 -13.8281 28.2031 -21.5469
z
" id="URW_Palladio_L_Roman-40"/>
      <path d="
M41 -0.109375
C47.0938 -0.109375 47.2031 -0.109375 48.9062 -0.109375
C50.2969 -0.109375 50.2969 -0.109375 57.2031 -0.109375
L57.2031 2.79688
L53.0938 3.20312
C49.7031 3.20312 49.4062 3.8125 49.4062 10.2188
L49.4062 29.5625
C49.4062 41.2812 43.9062 47 32.7031 47
C29 47 26.9062 46.2969 24.7969 44.4844
L17.2031 37.875
L17.2031 46.5938
L16.2969 47
C11.2031 44.8906 6 43.4844 0.703125 42.8906
L0.703125 40.0781
L4.40625 40.0781
C8.40625 40.0781 8.79688 39.375 8.79688 32.7188
L8.79688 10.0469
C8.79688 3.70312 8.5 3 5.09375 3
L0.59375 3
L0.59375 -0.109375
C7.40625 -0.109375 10.0938 -0.109375 13 -0.109375
C15.9062 -0.109375 18.5938 -0.109375 25.4062 -0.109375
L25.4062 3
L20.9062 3
C17.5 3 17.2031 3.70312 17.2031 10.0469
L17.2031 31.4219
C17.2031 35.9375 23.7969 40.875 29.9062 40.875
C36.5938 40.875 41 35.8906 41 28.2188
z
" id="URW_Palladio_L_Roman-110"/>
      <path d="
M5.90625 39.0938
L6.59375 37.0781
L9.79688 39.1875
C12.7031 41 13.7031 41.5 14.5938 41.5
C15.5938 41.5 16.2969 40.5938 16.2969 39.4844
C16.2969 38.9844 16.2031 38.2812 3.20312 -26.7969
L4.59375 -27.6094
L7.59375 -26.4062
C9.90625 -25.5 10.7969 -24.5 10.9062 -23.1875
L12.0938 -0.796875
C13.2969 -0.953125 14 -1 14.2969 -1
C17.2969 -1 23.7969 4.125 30.4062 11.5625
C34.5 16.1719 36.5938 18.9844 39.7031 24.1094
L36.2031 10.75
C35.2031 6.89062 34.9062 4.67188 34.9062 3.04688
C34.9062 0.53125 36 -1 37.9062 -1
C40.5 -1 44.2031 1.26562 53.9062 8.60938
L52.9062 10.4219
L50.2969 8.71875
C47.7969 7.10938 45.4062 6 44.2031 6
C43.4062 6 42.9062 6.70312 42.9062 7.70312
C42.9062 8.51562 43.0938 10.125 43.5 11.7188
C45.7969 22.6719 48.9062 36.0469 51.9062 47.5938
L51.2031 48.5
L44.4062 46.7812
L43.4062 41.6719
C41.9062 34.0312 39.5 27.3125 36.5938 22.6719
C30.7031 13.4375 22.7031 6 18.5938 6
C17.7031 6 17.2969 6.90625 17.2969 8.60938
C17.2969 10.125 17.4062 11.2188 18 13.8281
L23.7031 41.0625
C24 42.6719 24.2031 44.0781 24.2031 45.2812
C24.2031 47.3906 23.4062 48.5 22 48.5
C19.9062 48.5 16.2031 46.4844 8.70312 41.0938
z
" id="Pazo_Math_Italic-109"/>
      <path d="
M18.7969 46.7656
L17.9062 47.1562
C12.7969 45.0469 7.59375 43.6406 2.29688 43.0469
L2.29688 40.25
L6 40.25
C10 40.25 10.4062 39.5469 10.4062 32.8906
L10.4062 10.1719
C10.4062 3.8125 10.0938 3.10938 6.70312 3.10938
L2.09375 3.10938
L2.09375 0
C12.0938 0 12.0938 0.203125 14.5938 0.203125
C17.0938 0.203125 17.0938 0 27.0938 0
L27.0938 3.10938
L22.5 3.10938
C19.0938 3.10938 18.7969 3.8125 18.7969 10.1719
z

M14.2031 69
C11.2031 69 8.59375 66.3906 8.59375 63.375
C8.59375 60.4688 11.2031 57.875 14.0938 57.875
C17 57.875 19.7031 60.4688 19.7031 63.375
C19.7031 66.1875 17 69 14.2031 69" id="URW_Palladio_L_Roman-105"/>
      <path d="
M5.70312 2.20312
L5.70312 0
C17.2969 0 17.2969 0 19.5938 0
C21.4062 0 23 0 24.7969 0
C32.7031 0 32.7031 0 34.0938 0
C46.9062 0 56.5 3.26562 63.5 10.125
C70.7031 17.1719 75.0938 27.8906 75.0938 38.5156
C75.0938 56.9844 61.2969 69 40.2031 69
C39.5 69 38.2031 69 36.4062 69
C31.4062 69 27.0938 69 22.7969 69
C19.0938 69 13.5938 69 2.20312 69
L2.20312 66.1875
L6.20312 65.6875
C10.7969 65.6875 11.2969 64.7812 11.2969 57
L11.2969 9.6875
C11.2969 6.79688 10.4062 4.59375 8.79688 3.8125
z

M20.7969 64.3906
C23.4062 64.8906 26.9062 65.1875 31.9062 65.1875
C39.2031 65.1875 47.2031 63.9062 51.4062 62
C53.5938 61.1094 55.5 59.7188 57.2969 57.9219
C62.0938 53.1562 64.4062 45.9844 64.4062 36.0312
C64.4062 24.9062 61 16.3438 54.4062 10.9688
C48.4062 6.09375 42.4062 4.40625 31.0938 4.40625
C26.5 4.40625 23.4062 4.40625 20.7969 5.10938
z
" id="URW_Palladio_L_Roman-68"/>
      <path d="
M32.4062 8.40625
L31.9062 -0.015625
C38.4062 -0.015625 38.4062 -0.015625 39.7031 -0.015625
C40.2031 -0.015625 42.7031 -0.015625 47.0938 -0.015625
L47.0938 3
L43.2031 3
C40.7969 3 40.4062 3.8125 40.4062 8.71875
L40.4062 27.0469
C40.4062 41.6875 36.2031 47 24.5938 47
C20.2969 47 16.2969 45.8906 12.5 43.6094
L7.20312 40.3906
L7.20312 33.9219
L9.79688 33.2188
L11.0938 36.2969
C13.2031 40.9844 14.2031 41.6875 18.7969 41.6875
C28.2031 41.6875 32.0938 37.9844 32.4062 28.9375
L22.5 27.125
C8.90625 24.6406 3.20312 19.9531 3.20312 11.2812
C3.20312 3.5 7.90625 -1 15.7969 -1
C17.5938 -1 19.2969 -0.703125 20 -0.203125
z

M32.4062 12.5938
C29.5 8.5 23.2031 4.71875 19.2969 4.71875
C15.2969 4.71875 11.7969 8.40625 11.7969 12.6875
C11.7969 16.375 13.7969 19.8594 16.7969 21.75
C19.2969 23.25 24.7969 24.6406 32.4062 25.75
z
" id="URW_Palladio_L_Roman-97"/>
      <path d="
M5.09375 -21.5469
C12 -15.0312 14.9062 -11.7188 18 -6.8125
C24.0938 2.90625 27.2969 14.5312 27.2969 26.5469
C27.2969 34.2656 26 41.375 23.4062 48.0938
C19.5938 57.8125 15.5 63.3281 5.09375 72.75
L3.20312 70.1406
C10.5 61.5156 13.2031 56.8125 15.7031 48.5938
C17.7031 42.0781 18.7031 34.9688 18.7031 26.6562
C18.7031 18.1406 17.7031 10.5156 15.5938 3.3125
C13 -5.71875 10.4062 -10.5156 3.20312 -19.4375
z
" id="URW_Palladio_L_Roman-41"/>
     </defs>
     <g transform="translate(57.2469583544 117.912477282)scale(0.08 -0.08)">
      <use transform="scale(0.996264009963)" xlink:href="#URW_Palladio_L_Roman-68"/>
      <use transform="translate(77.1107522815 0.0)scale(0.996264009963)" xlink:href="#URW_Palladio_L_Roman-114"/>
      <use transform="translate(115.666075216 0.0)scale(0.996264009963)" xlink:href="#URW_Palladio_L_Roman-117"/>
      <use transform="translate(175.739809941 0.0)scale(0.996264009963)" xlink:href="#URW_Palladio_L_Roman-103"/>
      <use transform="translate(256.038087154 0.0)scale(0.996264009963)" xlink:href="#URW_Palladio_L_Roman-67"/>
      <use transform="translate(326.672880142 0.0)scale(0.996264009963)" xlink:href="#URW_Palladio_L_Roman-111"/>
      <use transform="translate(381.068460315 0.0)scale(0.996264009963)" xlink:href="#URW_Palladio_L_Roman-110"/>
      <use transform="translate(439.050520995 0.0)scale(0.996264009963)" xlink:href="#URW_Palladio_L_Roman-99"/>
      <use transform="translate(483.284089693 0.0)scale(0.996264009963)" xlink:href="#URW_Palladio_L_Roman-101"/>
      <use transform="translate(531.004384802 0.0)scale(0.996264009963)" xlink:href="#URW_Palladio_L_Roman-110"/>
      <use transform="translate(588.986445483 0.0)scale(0.996264009963)" xlink:href="#URW_Palladio_L_Roman-116"/>
      <use transform="translate(621.463533356 0.0)scale(0.996264009963)" xlink:href="#URW_Palladio_L_Roman-114"/>
      <use transform="translate(660.815429688 0.0)scale(0.996264009963)" xlink:href="#URW_Palladio_L_Roman-97"/>
      <use transform="translate(710.628630186 0.0)scale(0.996264009963)" xlink:href="#URW_Palladio_L_Roman-116"/>
      <use transform="translate(743.105718059 0.0)scale(0.996264009963)" xlink:href="#URW_Palladio_L_Roman-105"/>
      <use transform="translate(772.096079521 0.0)scale(0.996264009963)" xlink:href="#URW_Palladio_L_Roman-111"/>
      <use transform="translate(826.491659694 0.0)scale(0.996264009963)" xlink:href="#URW_Palladio_L_Roman-110"/>
      <use transform="translate(909.380320624 0.0)scale(0.996264009963)" xlink:href="#URW_Palladio_L_Roman-40"/>
      <use transform="translate(943.800849962 0.0)scale(0.996264009963)" xlink:href="#Pazo_Math_Italic-109"/>
      <use transform="translate(1003.12743229 0.0)scale(0.996264009963)" xlink:href="#URW_Palladio_L_Roman-77"/>
      <use transform="translate(1097.37363366 0.0)scale(0.996264009963)" xlink:href="#URW_Palladio_L_Roman-41"/>
     </g>
    </g>
   </g>
   <g id="matplotlib.axis_2">
    <g id="ytick_1">
     <g id="line2d_33">
      <defs>
       <path d="
M0 0
L4 0" id="m728421d6d4" style="stroke:#000000;stroke-width:0.5;"/>
      </defs>
      <g>
       <use style="stroke:#000000;stroke-width:0.5;" x="31.4978026736" xlink:href="#m728421d6d4" y="98.2597869318"/>
      </g>
     </g>
     <g id="line2d_34">
      <defs>
       <path d="
M0 0
L-4 0" id="mcb0005524f" style="stroke:#000000;stroke-width:0.5;"/>
      </defs>
      <g>
       <use style="stroke:#000000;stroke-width:0.5;" x="173.44" xlink:href="#mcb0005524f" y="98.2597869318"/>
      </g>
     </g>
     <g id="text_10">
      <!-- $0.80$ -->
      <g transform="translate(14.5501065341 99.9873174813)scale(0.08 -0.08)">
       <use transform="scale(0.996264009963)" xlink:href="#URW_Palladio_L_Roman-48"/>
       <use transform="translate(49.8132004981 0.0)scale(0.996264009963)" xlink:href="#URW_Palladio_L_Roman-46"/>
       <use transform="translate(74.7198007472 0.0)scale(0.996264009963)" xlink:href="#URW_Palladio_L_Roman-56"/>
       <use transform="translate(124.533001245 0.0)scale(0.996264009963)" xlink:href="#URW_Palladio_L_Roman-48"/>
      </g>
     </g>
    </g>
    <g id="ytick_2">
     <g id="line2d_35">
      <g>
       <use style="stroke:#000000;stroke-width:0.5;" x="31.4978026736" xlink:href="#m728421d6d4" y="75.5886035156"/>
      </g>
     </g>
     <g id="line2d_36">
      <g>
       <use style="stroke:#000000;stroke-width:0.5;" x="173.44" xlink:href="#mcb0005524f" y="75.5886035156"/>
      </g>
     </g>
     <g id="text_11">
      <!-- $0.85$ -->
      <defs>
       <path d="
M12.7031 60.5781
C25.5938 60.5781 31.2031 60.5781 43.2031 60.5781
L43.7031 60.875
C43.5 62.6719 43.5 63.4688 43.5 64.7812
C43.5 66.2031 43.5 67 43.7031 68.7969
L43.2031 69
C35.7031 69 31.2031 69 25.7969 69
C20.2969 69 15.9062 69 8.40625 69
L7.90625 68.7969
C8 62.6719 8.09375 58.2656 8.09375 55.0469
C8.09375 46.5156 7.79688 36.875 7.5 32.4531
L9.5 31.8438
C14.2031 36.5938 16.9062 38 21.7969 38
C31.4062 38 37.4062 31.1406 37.4062 20.25
C37.4062 9.0625 31 2.5 20.0938 2.5
C14.7031 2.5 9.70312 4.32812 8.29688 6.9375
L3.70312 15.2031
L1.29688 13.7969
C3.59375 8.0625 4.79688 4.84375 6.20312 0.421875
C9 -1.10938 13 -2 17.2969 -2
C24 -2 31.0938 0.921875 36.5938 5.75
C42.7031 11.1875 45.9062 18.0312 45.9062 25.4688
C45.9062 36.8594 37.7969 44.9062 26.4062 44.9062
C21.5938 44.9062 18 43.6094 11.7969 39.9062
z
" id="URW_Palladio_L_Roman-53"/>
      </defs>
      <g transform="translate(14.5501065341 77.3161340651)scale(0.08 -0.08)">
       <use transform="scale(0.996264009963)" xlink:href="#URW_Palladio_L_Roman-48"/>
       <use transform="translate(49.8132004981 0.0)scale(0.996264009963)" xlink:href="#URW_Palladio_L_Roman-46"/>
       <use transform="translate(74.7198007472 0.0)scale(0.996264009963)" xlink:href="#URW_Palladio_L_Roman-56"/>
       <use transform="translate(124.533001245 0.0)scale(0.996264009963)" xlink:href="#URW_Palladio_L_Roman-53"/>
      </g>
     </g>
    </g>
    <g id="ytick_3">
     <g id="line2d_37">
      <g>
       <use style="stroke:#000000;stroke-width:0.5;" x="31.4978026736" xlink:href="#m728421d6d4" y="52.9174200994"/>
      </g>
     </g>
     <g id="line2d_38">
      <g>
       <use style="stroke:#000000;stroke-width:0.5;" x="173.44" xlink:href="#mcb0005524f" y="52.9174200994"/>
      </g>
     </g>
     <g id="text_12">
      <!-- $0.90$ -->
      <g transform="translate(14.5501065341 54.6449506489)scale(0.08 -0.08)">
       <use transform="scale(0.996264009963)" xlink:href="#URW_Palladio_L_Roman-48"/>
       <use transform="translate(49.8132004981 0.0)scale(0.996264009963)" xlink:href="#URW_Palladio_L_Roman-46"/>
       <use transform="translate(74.7198007472 0.0)scale(0.996264009963)" xlink:href="#URW_Palladio_L_Roman-57"/>
       <use transform="translate(124.533001245 0.0)scale(0.996264009963)" xlink:href="#URW_Palladio_L_Roman-48"/>
      </g>
     </g>
    </g>
    <g id="ytick_4">
     <g id="line2d_39">
      <g>
       <use style="stroke:#000000;stroke-width:0.5;" x="31.4978026736" xlink:href="#m728421d6d4" y="30.2462366832"/>
      </g>
     </g>
     <g id="line2d_40">
      <g>
       <use style="stroke:#000000;stroke-width:0.5;" x="173.44" xlink:href="#mcb0005524f" y="30.2462366832"/>
      </g>
     </g>
     <g id="text_13">
      <!-- $0.95$ -->
      <g transform="translate(14.5501065341 31.9737672327)scale(0.08 -0.08)">
       <use transform="scale(0.996264009963)" xlink:href="#URW_Palladio_L_Roman-48"/>
       <use transform="translate(49.8132004981 0.0)scale(0.996264009963)" xlink:href="#URW_Palladio_L_Roman-46"/>
       <use transform="translate(74.7198007472 0.0)scale(0.996264009963)" xlink:href="#URW_Palladio_L_Roman-57"/>
       <use transform="translate(124.533001245 0.0)scale(0.996264009963)" xlink:href="#URW_Palladio_L_Roman-53"/>
      </g>
     </g>
    </g>
    <g id="ytick_5">
     <g id="line2d_41">
      <g>
       <use style="stroke:#000000;stroke-width:0.5;" x="31.4978026736" xlink:href="#m728421d6d4" y="7.57505326705"/>
      </g>
     </g>
     <g id="line2d_42">
      <g>
       <use style="stroke:#000000;stroke-width:0.5;" x="173.44" xlink:href="#mcb0005524f" y="7.57505326705"/>
      </g>
     </g>
     <g id="text_14">
      <!-- $1.00$ -->
      <g transform="translate(14.5501065341 9.30258381655)scale(0.08 -0.08)">
       <use transform="scale(0.996264009963)" xlink:href="#URW_Palladio_L_Roman-49"/>
       <use transform="translate(49.8132004981 0.0)scale(0.996264009963)" xlink:href="#URW_Palladio_L_Roman-46"/>
       <use transform="translate(74.7198007472 0.0)scale(0.996264009963)" xlink:href="#URW_Palladio_L_Roman-48"/>
       <use transform="translate(124.533001245 0.0)scale(0.996264009963)" xlink:href="#URW_Palladio_L_Roman-48"/>
      </g>
     </g>
    </g>
    <g id="text_15">
     <!-- $R^2$ -->
     <defs>
      <path d="
M10.5 66.1094
L16.0938 66.1094
C18.5 66.1094 19.5938 65.3125 19.5938 63.5156
C19.5938 62.125 19.2031 58.9375 18.7031 55.9531
L11.2031 12.75
C9.59375 3.6875 9.40625 3.48438 5.40625 3.07812
L1.29688 2.78125
L0.90625 0
L5.09375 0
C9.79688 0 11.7031 0 14.0938 0
L23.7969 0
L26.4062 0
L26.7031 2.79688
L21.7969 2.79688
C19.0938 3 18.2031 3.79688 18.2031 5.8125
C18.2031 6.70312 18.2969 7.59375 18.5938 9.29688
L27.0938 57.9531
C27.0938 58.1562 27.5938 60.1562 28 61.9219
C28.2031 62.7188 28.4062 63.4219 28.7031 64.7188
C31.5938 65.3125 33.5938 65.5156 36.2969 65.5156
C45 65.5156 49.5938 61.625 49.5938 54.2656
C49.5938 44.7969 41.7969 37.8281 31.4062 37.8281
L27 37.8281
L26.7031 36.7344
C40.0938 17.375 43.2031 12.6094 50.7031 0
L57.2969 0
L58.0938 0
L59.2031 0
C59.2969 0 60.7031 0 62.5938 0
L63.9062 0
L63.9062 2.59375
C59.9062 3.09375 58.7969 3.89062 55.9062 8.0625
L37.5 35.4375
C43 36.4219 45.9062 37.6094 49.5 40.1719
C55.2969 44.3281 58.4062 49.75 58.4062 55.7656
C58.4062 64.2656 52 69 40.9062 69
L25.9062 69
C24.4062 69 22.5938 69 10.7969 69
z
" id="URW_Palladio_L_Italic-82"/>
     </defs>
     <g transform="translate(9.30258381655 57.1196259997)rotate(-90.0)scale(0.08 -0.08)">
      <use transform="scale(0.996264009963)" xlink:href="#URW_Palladio_L_Italic-82"/>
      <use transform="translate(67.6951635225 36.1643714002)scale(0.75715517493)" xlink:href="#URW_Palladio_L_Roman-50"/>
     </g>
    </g>
   </g>
   <g id="legend_1">
    <g id="line2d_43">
     <path d="
M38.6978 67.5028
L47.0978 67.5028" style="fill:none;stroke:#b58900;stroke-dasharray:2.000000,2.000000;stroke-dashoffset:0.0;stroke-linecap:round;stroke-width:0.75;"/>
    </g>
    <g id="line2d_44">
     <defs>
      <path d="
M0 1.2
C0.318244 1.2 0.623496 1.07356 0.848528 0.848528
C1.07356 0.623496 1.2 0.318244 1.2 0
C1.2 -0.318244 1.07356 -0.623496 0.848528 -0.848528
C0.623496 -1.07356 0.318244 -1.2 0 -1.2
C-0.318244 -1.2 -0.623496 -1.07356 -0.848528 -0.848528
C-1.07356 -0.623496 -1.2 -0.318244 -1.2 0
C-1.2 0.318244 -1.07356 0.623496 -0.848528 0.848528
C-0.623496 1.07356 -0.318244 1.2 0 1.2
z
" id="m083bb8591a"/>
     </defs>
     <g>
      <use style="fill:#b58900;" x="38.6978026736" xlink:href="#m083bb8591a" y="67.5027573844"/>
      <use style="fill:#b58900;" x="47.0978026736" xlink:href="#m083bb8591a" y="67.5027573844"/>
     </g>
    </g>
    <g id="text_16">
     <!-- KL001, {\itshape Bmal1-dLuc} -->
     <defs>
      <path d="
M34.9062 66.2188
L35.2031 69
L32.7969 69
L23.7969 69
C22.2031 69 20.4062 69 16.0938 69
L9.70312 69
L9.40625 66.2188
L14.0938 66.2188
C16.5 66.2188 17.5938 65.4219 17.5938 63.625
C17.5938 62.2344 17.2031 59.125 16.7031 56.0469
L8.09375 5.79688
C7.70312 3.98438 6.5 3.28125 2.09375 2.59375
L1.59375 0
L5.70312 0
C8.79688 0 15 0 17 0
L38.5 0
L39.5 0
C40.9062 0 43.4062 0 46.7031 0
L50 0
C49.9062 2.51562 51 10.3906 52.2969 16.6562
L49.2031 16.6562
L47.5 10.4688
C46.5938 7.26562 45.7031 5.57812 44.7969 5.07812
C43.5 4.57812 37.0938 4.09375 30.4062 4.09375
C25.5 4.09375 22.7969 4.09375 16.2031 4.79688
L16.2031 5.20312
C16.2031 6.59375 16.2969 7.39062 16.4062 8.28125
L25.5938 61.1562
C26.2969 64.9375 27 65.6094 30.7031 65.9219
z
" id="URW_Palladio_L_Italic-76"/>
      <path d="
M33.2969 9.5625
C32.5938 7.17188 32.2031 4.48438 32.2031 2.98438
C32.2031 0.484375 33.2969 -1 35.2031 -1
C37.7969 -1 41.4062 1.07812 51.2031 8.35938
L50.2031 10.1562
L47.5938 8.46875
C45.2031 6.85938 42.5938 5.76562 41.5 5.76562
C40.7031 5.76562 40.2031 6.46875 40.2031 7.45312
C40.2031 8.25 40.4062 9.35938 40.7031 10.8594
L40.7969 11.4531
C43.0938 22.3438 46.2031 35.6406 49.2031 47.1094
L48.5 48
L41.7031 46.2969
L40.7031 41.2031
C39.2031 33.4219 36.7031 26.625 33.5938 21.9375
C27.7031 12.8438 19.9062 5.76562 15.9062 5.76562
C15.0938 5.76562 14.5938 6.65625 14.5938 8.35938
C14.5938 9.76562 14.7969 11.0625 15.2969 13.5469
L21 40.6094
C21.2969 42.2031 21.5 43.5938 21.5 44.8906
C21.5 46.7969 20.5938 48 19.2031 48
C17.2031 48 13.4062 45.9062 6 40.6094
L3.20312 38.625
L3.90625 36.625
L7.09375 38.7188
C9.90625 40.5156 11 41.0156 11.9062 41.0156
C12.7969 41.0156 13.5938 40.1094 13.5938 39.0156
C13.5938 38.625 13.5 37.6406 13.4062 37.25
L7.09375 7.75
C6.90625 6.84375 6.70312 4.45312 6.70312 3.0625
C6.70312 0.796875 8.20312 -1 10.2031 -1
C16.5 -1 28.5938 10.0938 37 23.7344
z
" id="URW_Palladio_L_Italic-117"/>
      <path d="
M21.5938 57.2656
C21.5938 65.1875 22.0938 66 26.7031 66
L31.5 66
L31.5 69.1094
C24.2031 69.1094 22 69.1094 16.7969 69.1094
C11.7969 69.1094 9.40625 69.1094 2.20312 69.1094
L2.20312 66
L7 66
C11.5938 66 12.0938 65.1875 12.0938 57.2656
L12.0938 9.71875
C12.0938 6.8125 11.2031 4.60938 9.59375 3.8125
L6.5 2.20312
L6.5 0
C13.0938 0 13.7969 0 16.4062 0
C17.2969 0 18.9062 0 21.0938 0
C26 0 36.9062 0 39.7031 0
C42.9062 0 42.9062 0 56.5 0
C57.2031 4.35938 57.5938 7.60938 58.5938 17.4375
L55.4062 17.4375
L54.2031 12.4219
C54.0938 12.125 54 11.4219 53.9062 11.3281
C53.2969 8.42188 52.5938 6.42188 52 5.92188
C50.7031 4.8125 42 4.10938 30.0938 4.10938
C26.5 4.10938 24.2031 4.3125 21.5938 4.90625
z
" id="URW_Palladio_L_Roman-76"/>
      <path d="
M9.70312 65.7031
L15 65.7031
C17.4062 65.7031 18.5 64.9062 18.5 63.0938
C18.5 61.7031 18.0938 58.5 17.5938 55.5
L8.90625 5.10938
C8.5 3.29688 7.29688 2.59375 3.09375 1.90625
L2.59375 -0.703125
L6.29688 -0.703125
C9 -0.703125 10.5 -0.703125 11.7031 -0.703125
C12.7969 -0.703125 15.4062 -0.703125 18 -0.703125
L21.7031 -0.703125
L23.7031 -0.703125
C25.5938 -0.703125 26.9062 -1 27.7031 -1
C32.5 -1 37.2969 0.390625 42 3.17188
C49.9062 7.85938 54.2969 14.6094 54.2969 22.1875
C54.2969 26.4688 52.9062 29.7344 50.2031 31.9219
C47.5938 34.0156 44.5938 34.9062 37.7031 35.9062
C43.4062 37.9062 45.9062 39.1094 49 41.9062
C53.5938 45.7969 55.9062 50.5156 55.9062 55.6094
C55.9062 63.7969 50.0938 68.5938 40.0938 68.5938
C39.9062 68.5938 38.9062 68.5938 37.4062 68.5938
L31.0938 68.5938
C29.9062 68.5938 26.2969 68.5938 25.0938 68.5938
C23.2031 68.5938 20.0938 68.5938 15.2031 68.5938
L10 68.5938
z

M21.7031 33.4219
L30.2031 33.4219
C40.5 33.4219 45.5 29.2344 45.5 20.5938
C45.5 10.3438 38.2031 2.98438 28.2031 2.98438
C26.2031 2.98438 23.2969 2.98438 20 3.34375
C19.4062 3.46875 18.2031 3.57812 16.5938 3.57812
z

M27.2031 64.5
C28.2969 64.5 28.5 64.5 30.5938 64.5
C32.7031 64.8438 34 65 35.2031 65
C43.2969 65 47.2969 61.3906 47.2969 53.8594
C47.2969 43.3281 39.9062 37 27.5 37
L22.2969 37
z
" id="URW_Palladio_L_Italic-66"/>
      <path d="
M37.4062 68.7188
L35.9062 69.8125
L25.9062 65.7188
C22.0938 64.125 19.0938 63.3438 11.9062 61.5469
L9.5 60.9531
L8.40625 55.0781
L9.09375 54.5781
L17.5 58.6562
C17.5938 58.75 21 60.1562 24.2031 61.4375
C25.7969 62.0469 26.5 62.3438 27.7969 62.8438
L19.2031 10.4375
C18.2969 5.26562 17.5 4.1875 14.4062 3.6875
L5.90625 2.6875
L5.40625 0
C12.2969 0 17.0938 0 22.4062 0
C27.7031 0 32.4062 0 39.2969 0
L39.7969 2.89062
L32.7031 2.89062
C28.0938 2.89062 26.7969 3.875 26.7969 7.39062
C26.7969 8.48438 26.9062 9.1875 27.5938 13.4062
L35 57.1875
z
" id="URW_Palladio_L_Italic-49"/>
      <path d="
M34.2031 32.8906
L36.5 32.8906
C37.2969 39.3438 38 43.0156 38.9062 45.6094
C36.5 47.0938 33 48 29.2969 48
C24.7969 48 17.4062 44.4062 11.7969 39.3438
C6.29688 34.4844 2.5 24.0469 2.5 13.6094
C2.5 4.0625 6.70312 -1 14.7031 -1
C20.0938 -1 24.9062 0.984375 30.4062 5.46875
L35.4062 9.54688
L34.5938 11.5312
L33.0938 10.5312
C25.9062 5.76562 22.0938 4.07812 18.5938 4.07812
C13 4.07812 10.0938 8.04688 10.0938 15.8906
C10.0938 26.6406 13.5938 36.9531 18.5 40.7344
C20.5938 42.3281 23 43.125 26.0938 43.125
C30.5938 43.125 34.2031 41.2188 34.2031 38.8438
z
" id="URW_Palladio_L_Italic-99"/>
      <path d="
M48.2969 72.1719
L47.0938 73.2656
C41.9062 70.6875 38.2969 69.7812 31.0938 69.0938
L30.7031 67
L35.5 67
C37.9062 67 38.9062 66.2812 38.9062 64.5781
C38.9062 63.7656 38.7969 62.8594 38.7031 62.1562
L35.9062 46.6094
C32.9062 47.5 30.2031 48 27.7031 48
C20.7969 48 11.4062 40.8438 6.79688 32.1875
C3.70312 26.4375 1.70312 16.9844 1.70312 8.64062
C1.70312 2.1875 3.20312 -1 6.09375 -1
C8.79688 -1 12.5 0.6875 15.9062 3.35938
C21.2969 7.75 24.5938 11.6094 31.2969 21.6562
L29 12.5312
C27.9062 8.125 27.4062 4.92188 27.4062 2.29688
C27.4062 0.203125 28.2969 -1 30 -1
C31.7031 -1 34.0938 0.203125 37.5 2.73438
L45.5938 8.82812
L44.5938 10.7188
L40.2031 7.64062
C38.7969 6.65625 37.2031 5.95312 36.2969 5.95312
C35.5 5.95312 34.9062 6.84375 34.9062 8.25
C34.9062 9.0625 35 9.95312 35.7031 12.8438
z

M33.7031 34.9844
C31.9062 26.2344 27 17.4844 20.7969 11.6094
C17.2969 8.34375 13.2969 5.95312 11.4062 5.95312
C9.79688 5.95312 8.90625 7.34375 8.90625 9.82812
C8.90625 22.3594 13.5 37.8594 18.4062 41.625
C19.7031 42.625 21.5938 43.125 24.2969 43.125
C28.7031 43.125 31.5938 42.5156 34.9062 40.8438
z
" id="URW_Palladio_L_Italic-100"/>
      <path d="
M25.0938 71.6719
L23.9062 72.7656
C18.7031 70.1875 15.0938 69.2812 7.90625 68.5938
L7.5 66.5
L12.2969 66.5
C14.7031 66.5 15.7031 65.7969 15.7031 64.3125
C15.7031 64.0156 15.7031 63.5156 15.4062 61.7188
L15.0938 59.5469
C14.5 54.0625 8.40625 23.1406 6.90625 18.1875
L5.5 13.0156
C4.20312 8.04688 3.59375 5.04688 3.59375 2.98438
C3.59375 0.484375 4.70312 -1 6.59375 -1
C9.20312 -1 12.7969 1.07812 22.5938 8.375
L21.5938 10.1719
L19 8.48438
C16.0938 6.59375 13.9062 5.5 12.9062 5.5
C12.2031 5.5 11.5938 6.5 11.5938 7.48438
C11.5938 8.09375 11.7031 8.78125 12 10.2656
L12.2031 11.1562
z
" id="URW_Palladio_L_Italic-108"/>
      <path d="
M73 10.1719
L70.4062 8.48438
C67.5 6.57812 65.2969 5.48438 64.2969 5.48438
C63.5938 5.48438 63 6.375 63 7.46875
C63 8.46875 63.2031 9.375 63.7031 11.4688
L71.2031 41.1094
C71.5938 42.7969 71.9062 44.3906 71.9062 45.2031
C71.9062 46.9062 70.9062 48 69.2969 48
C66.4062 48 62.5938 46.2031 56.5 41.9062
C50.2031 37.4062 46.7031 33.9219 41.7969 27.0312
L44.7969 40.7188
C45.2031 42.7031 45.5 44.2031 45.5 44.9062
C45.5 46.7969 44.5 48 42.9062 48
C39.9062 48 35.2969 45.8125 29.7969 41.6094
C25.4062 38.2031 23.4062 36.1094 16.9062 27.3281
L20.2031 40.6094
C20.5938 42.2031 20.7969 43.7031 20.7969 44.8906
C20.7969 46.7969 19.9062 48 18.5 48
C16.4062 48 12.5938 45.9062 5.20312 40.5938
L2.40625 38.6094
L3.09375 36.6094
L6.29688 38.7031
C10 41.0156 10.2969 41.2031 11 41.2031
C12.0938 41.2031 12.7969 40.2188 12.7969 38.7188
C12.7969 33.625 8.70312 14.3594 4.59375 0.09375
L4.90625 -1
L11.7031 0.484375
L13.9062 10.6719
C16.2969 21.75 19 27.6406 24.5 33.625
C28.7031 38.2188 33.2031 41.2031 36 41.2031
C36.7031 41.2031 37.0938 40.4062 37.0938 39.125
C37.0938 35.625 34.9062 24.25 30.7969 6.78125
L29.2031 0.09375
L29.7031 -1
L36.5938 0.484375
L38.7031 11.1719
C40.2969 19.25 43.7031 26.7344 48.0938 31.6406
C53.5938 37.7188 58.5938 41.2031 61.7969 41.2031
C62.5938 41.2031 63.0938 40.3125 63.0938 38.7188
C63.0938 36.3125 62.7969 34.9219 60.5938 26.2344
C59 19.9531 57.2969 13.9688 56.2969 10.5781
C55.4062 7.76562 55 5.1875 55 3
C55 0.484375 56.0938 -1 58 -1
C60.5938 -1 64.2031 1.07812 74 8.375
z
" id="URW_Palladio_L_Italic-109"/>
      <path d="
M20.4062 12.3281
C17.7031 11.4219 15.9062 10.8281 10.5938 9.3125
C9.90625 1.70312 7.40625 -4.8125 1.59375 -14.4219
L3 -15.5312
L7.09375 -13.625
C15.2031 -3.10938 19 3.20312 21.7969 10.9219
z
" id="URW_Palladio_L_Roman-44"/>
      <path d="
M40.2031 47.0156
L39.2031 47.9062
L35.9062 46.1094
C31.7969 47.5938 30.0938 48 27.4062 48
C24.5938 48 22.5938 47.5 19.9062 46.2031
C13.7031 43.1406 10.4062 40.1406 7.90625 35.2812
C3.5 26.4375 0.40625 14.5 0.40625 6.75
C0.40625 2.39062 1.90625 -1 3.79688 -1
C6 -1 9.79688 1.1875 13.5938 4.5625
C17.7969 8.34375 21.7031 12.8125 27.0938 20.3594
L24.2031 7.625
C23.7969 5.90625 23.5938 4.10938 23.5938 2.51562
C23.5938 0.296875 24.5 -1 26 -1
C28.2969 -1 32.4062 1.625 40.5938 8.53125
L39.9062 10.625
C39.2969 10.125 39 9.92188 38.5938 9.51562
C35.4062 6.84375 33.9062 5.95312 32.4062 5.95312
C31.5 5.95312 30.9062 6.84375 30.9062 8.25
C30.9062 8.73438 30.9062 9.04688 31 9.34375
z

M31.9062 41.2344
C29.7031 30.4062 27.7969 25.2344 24.4062 20.0625
C18.7031 11.7188 12.5938 5.95312 9.40625 5.95312
C8.20312 5.95312 7.59375 7.25 7.59375 9.92188
C7.59375 16.2969 10.4062 27.9062 13.9062 35.8594
C16.2969 41.3281 18.5938 43.125 23.4062 43.125
C25.7031 43.125 27.5 42.7188 31.9062 41.2344" id="URW_Palladio_L_Italic-97"/>
      <path d="
M21.5938 32.6094
L22.5938 33.3125
L57.4062 0
C64.4062 0 64.4062 0 65.4062 0
C66.7031 0 66.9062 0 71.9062 0
L71.9062 2.90625
L69.7969 3.10938
C68.2969 3.10938 66.7031 4.21875 63.5938 7.10938
L30.5938 38.2969
L57.2031 62.2969
C59.9062 64.7031 62.4062 66 65 66
L69.2031 66
L69.2031 69.0156
C62.9062 69.0156 62.9062 69.0156 61.2031 69.0156
C59.7969 69.0156 58.0938 69.0156 52.2969 69.0156
L52.2969 66.3281
C52.2969 65.7344 51 64.0469 49.4062 62.4531
L21.5938 35.5938
L21.5938 57.2031
C21.5938 65.1875 22.0938 66 26.7031 66
L31.5 66
L31.5 69.0156
C24.2031 69.0156 22 69.0156 16.7969 69.0156
C11.7969 69.0156 9.40625 69.0156 2.20312 69.0156
L2.20312 66
L7 66
C11.5938 66 12.0938 65.1875 12.0938 57.2188
L12.0938 11.8906
C12.0938 3.90625 11.5938 3.10938 7 3.10938
L2.20312 3.10938
L2.20312 0
C8.09375 0 11.5938 0 16.7969 0
C22 0 25.5938 0 31.5 0
L31.5 3.10938
L26.7031 3.10938
C22.0938 3.10938 21.5938 3.90625 21.5938 11.9062
z
" id="URW_Palladio_L_Roman-75"/>
      <path d="
M1.90625 22
L28.5938 22
L30.4062 27.7812
L3.79688 27.7812
z
" id="URW_Palladio_L_Italic-45"/>
     </defs>
     <g transform="translate(53.6978026736 69.6027573844)scale(0.06 -0.06)">
      <use transform="scale(0.996264009963)" xlink:href="#URW_Palladio_L_Roman-75"/>
      <use transform="translate(72.3276938775 0.0)scale(0.996264009963)" xlink:href="#URW_Palladio_L_Roman-76"/>
      <use transform="translate(133.199324554 0.0)scale(0.996264009963)" xlink:href="#URW_Palladio_L_Roman-48"/>
      <use transform="translate(183.012525053 0.0)scale(0.996264009963)" xlink:href="#URW_Palladio_L_Roman-48"/>
      <use transform="translate(232.825725551 0.0)scale(0.996264009963)" xlink:href="#URW_Palladio_L_Roman-49"/>
      <use transform="translate(282.638926049 0.0)scale(0.996264009963)" xlink:href="#URW_Palladio_L_Roman-44"/>
      <use transform="translate(332.452126547 0.0)scale(0.996264009963)" xlink:href="#URW_Palladio_L_Italic-66"/>
      <use transform="translate(393.323757224 0.0)scale(0.996264009963)" xlink:href="#URW_Palladio_L_Italic-109"/>
      <use transform="translate(470.832127325 0.0)scale(0.996264009963)" xlink:href="#URW_Palladio_L_Italic-97"/>
      <use transform="translate(515.065696023 0.0)scale(0.996264009963)" xlink:href="#URW_Palladio_L_Italic-108"/>
      <use transform="translate(542.760865626 0.0)scale(0.996264009963)" xlink:href="#URW_Palladio_L_Italic-49"/>
      <use transform="translate(592.574066124 0.0)scale(0.996264009963)" xlink:href="#URW_Palladio_L_Italic-45"/>
      <use transform="translate(625.749295853 0.0)scale(0.996264009963)" xlink:href="#URW_Palladio_L_Italic-100"/>
      <use transform="translate(675.562496352 0.0)scale(0.996264009963)" xlink:href="#URW_Palladio_L_Italic-76"/>
      <use transform="translate(730.954173315 0.0)scale(0.996264009963)" xlink:href="#URW_Palladio_L_Italic-117"/>
      <use transform="translate(786.345850278 0.0)scale(0.996264009963)" xlink:href="#URW_Palladio_L_Italic-99"/>
     </g>
    </g>
    <g id="line2d_45">
     <path d="
M38.6978 74.6653
L47.0978 74.6653" style="fill:none;stroke:#cb4b16;stroke-dasharray:2.000000,2.000000;stroke-dashoffset:0.0;stroke-linecap:round;stroke-width:0.75;"/>
    </g>
    <g id="line2d_46">
     <defs>
      <path d="
M0 1.2
C0.318244 1.2 0.623496 1.07356 0.848528 0.848528
C1.07356 0.623496 1.2 0.318244 1.2 0
C1.2 -0.318244 1.07356 -0.623496 0.848528 -0.848528
C0.623496 -1.07356 0.318244 -1.2 0 -1.2
C-0.318244 -1.2 -0.623496 -1.07356 -0.848528 -0.848528
C-1.07356 -0.623496 -1.2 -0.318244 -1.2 0
C-1.2 0.318244 -1.07356 0.623496 -0.848528 0.848528
C-0.623496 1.07356 -0.318244 1.2 0 1.2
z
" id="m149080fc4f"/>
     </defs>
     <g>
      <use style="fill:#cb4b16;" x="38.6978026736" xlink:href="#m149080fc4f" y="74.6653220832"/>
      <use style="fill:#cb4b16;" x="47.0978026736" xlink:href="#m149080fc4f" y="74.6653220832"/>
     </g>
    </g>
    <g id="text_17">
     <!-- KL001, {\itshape Per2-dLuc} -->
     <defs>
      <path d="
M10.0938 6.48438
L34.7969 33.3438
C40.5 39.5312 43.7031 47.0312 43.7031 53.9219
C43.7031 63.7031 37.0938 70 26.7969 70
C21.7031 70 18 68.7969 13.5938 65.5938
L7.59375 53.6406
L9.79688 52.7344
C14.7031 60.7188 18.4062 63.5312 24.0938 63.5312
C30.7031 63.5312 35.2031 59.0312 35.2031 52.4375
C35.2031 45.6562 31.5 37.0625 25.0938 28.7656
C20.9062 23.375 13.7969 15.1875 6.09375 6.89062
L1.20312 1.70312
L1.20312 0
C8 0 15.2969 0 21.4062 0
C27.5 0 34.7031 0 41.5 0
L43.2031 6.78125
L42.5938 7.57812
C38 6.78125 34.5938 6.48438 31.0938 6.48438
z
" id="URW_Palladio_L_Italic-50"/>
      <path d="
M36.7969 36.3438
C37.0938 40.125 37.5938 43.3125 38.4062 47.4062
C37.2969 47.8906 36.9062 48 36.4062 48
C33.2969 48 30.2031 45.6094 26.5938 40.5312
L23.9062 36.6406
C20 31.0625 18.7969 28.9844 17.2031 25.4844
L18 29.5781
C18.4062 31.8594 19.2031 35.8438 19.7969 38.0312
L20.4062 40.625
C20.7969 42.3281 21 43.6094 21 44.8125
C21 46.7969 20.2031 48 18.7031 48
C16.5938 48 12.7969 45.9062 5.40625 40.625
L2.59375 38.6406
L3.29688 36.6406
L6.5 38.7344
C9.29688 40.5312 10.4062 41.0312 11.2969 41.0312
C12.2969 41.0312 13 40.125 13 38.8281
C13 33.0625 8.70312 12.5469 4.70312 -0.203125
L5.70312 -0.890625
C7.20312 -0.390625 8.79688 -0.09375 11.0938 0.390625
L12.4062 0.59375
L15 12.5469
C16.7969 20.8125 19.0938 26.0938 23.5 31.7656
C26.9062 36.1406 29.5938 38.2344 31.7969 38.2344
C33.2969 38.2344 34.2969 37.7344 35.4062 36.3438
z
" id="URW_Palladio_L_Italic-114"/>
      <path d="
M10.5 66.0156
L16 66.0156
C18.4062 66.0156 19.5 65.2188 19.5 63.4219
C19.5 62.0312 19.0938 58.9531 18.5938 55.875
L11.2031 12.7344
C9.5 3.6875 9.40625 3.39062 5.40625 3.07812
L1.29688 2.78125
L0.90625 0
L5.09375 0
C9.20312 0 12.2969 0 14.0938 0
C15.7969 0 18.7031 0 22.7031 0
L28 0
L28.2969 2.89062
L21.7969 2.89062
C19.2031 2.89062 18.2031 3.6875 18.2031 5.79688
C18.2031 6.6875 18.2969 7.39062 18.5938 9.28125
L26.7969 57.9062
C26.7969 58.0156 27.2031 59.9844 27.7031 61.8594
C27.7969 62.3594 28.0938 63.3438 28.4062 64.625
C32 65.2188 33.5938 65.4219 35.5 65.4219
C45.7031 65.4219 50.5938 61.0625 50.5938 51.875
C50.5938 41.1875 43.4062 32.4844 34.5938 32.4844
C32.4062 32.4844 30.4062 32.9688 26.7031 34.3594
L26.9062 31.2969
C30.5938 29.5 32.5938 29 35.5 29
C48.4062 29 59.4062 40.5 59.4062 53.875
C59.4062 63.7812 53.0938 69 41.2031 69
L27.4062 69
L16.0938 69
L10.7969 69
z
" id="URW_Palladio_L_Italic-80"/>
      <path d="
M32.7969 11.125
L30.4062 9.4375
C25.0938 5.67188 20.2969 3.67188 16.7031 3.67188
C12 3.67188 9.09375 7.35938 9.09375 13.3281
C9.09375 15.7969 9.40625 18.4844 9.90625 21.375
L18.0938 23.3438
C19.7969 23.75 22.5 24.75 25 25.8438
C33.5 29.5156 37.4062 34.0938 37.4062 40.25
C37.4062 44.9062 34 48 29 48
C22.5 48 11.4062 41.1406 7.5 34.7812
C4.5 29.8125 1.5 17.9844 1.5 11.3125
C1.5 3.5625 5.90625 -1 13.0938 -1
C18.7969 -1 24.4062 1.78125 33.5938 9.23438
z

M11.2969 27.3125
C13 34.1719 15 38.4531 17.9062 41.0312
C19.7031 42.625 22.7969 43.8125 25.2031 43.8125
C28.0938 43.8125 30 41.8281 30 38.6562
C30 34.2656 26.5 29.6094 21.2969 27.1094
C18.5 25.7344 14.9062 24.6406 10.4062 23.6406
z
" id="URW_Palladio_L_Italic-101"/>
     </defs>
     <g transform="translate(53.6978026736 76.7653220832)scale(0.06 -0.06)">
      <use transform="scale(0.996264009963)" xlink:href="#URW_Palladio_L_Roman-75"/>
      <use transform="translate(72.3276938775 0.0)scale(0.996264009963)" xlink:href="#URW_Palladio_L_Roman-76"/>
      <use transform="translate(133.199324554 0.0)scale(0.996264009963)" xlink:href="#URW_Palladio_L_Roman-48"/>
      <use transform="translate(183.012525053 0.0)scale(0.996264009963)" xlink:href="#URW_Palladio_L_Roman-48"/>
      <use transform="translate(232.825725551 0.0)scale(0.996264009963)" xlink:href="#URW_Palladio_L_Roman-49"/>
      <use transform="translate(282.638926049 0.0)scale(0.996264009963)" xlink:href="#URW_Palladio_L_Roman-44"/>
      <use transform="translate(332.452126547 0.0)scale(0.996264009963)" xlink:href="#URW_Palladio_L_Italic-80"/>
      <use transform="translate(393.323757224 0.0)scale(0.996264009963)" xlink:href="#URW_Palladio_L_Italic-101"/>
      <use transform="translate(432.077463418 0.0)scale(0.996264009963)" xlink:href="#URW_Palladio_L_Italic-114"/>
      <use transform="translate(470.831169613 0.0)scale(0.996264009963)" xlink:href="#URW_Palladio_L_Italic-50"/>
      <use transform="translate(520.644370111 0.0)scale(0.996264009963)" xlink:href="#URW_Palladio_L_Italic-45"/>
      <use transform="translate(553.81959984 0.0)scale(0.996264009963)" xlink:href="#URW_Palladio_L_Italic-100"/>
      <use transform="translate(603.632800339 0.0)scale(0.996264009963)" xlink:href="#URW_Palladio_L_Italic-76"/>
      <use transform="translate(659.024477302 0.0)scale(0.996264009963)" xlink:href="#URW_Palladio_L_Italic-117"/>
      <use transform="translate(714.416154265 0.0)scale(0.996264009963)" xlink:href="#URW_Palladio_L_Italic-99"/>
     </g>
    </g>
    <g id="line2d_47">
     <path d="
M38.6978 81.8697
L47.0978 81.8697" style="fill:none;stroke:#6c71c4;stroke-dasharray:2.000000,2.000000;stroke-dashoffset:0.0;stroke-linecap:round;stroke-width:0.75;"/>
    </g>
    <g id="line2d_48">
     <defs>
      <path d="
M0 1.2
C0.318244 1.2 0.623496 1.07356 0.848528 0.848528
C1.07356 0.623496 1.2 0.318244 1.2 0
C1.2 -0.318244 1.07356 -0.623496 0.848528 -0.848528
C0.623496 -1.07356 0.318244 -1.2 0 -1.2
C-0.318244 -1.2 -0.623496 -1.07356 -0.848528 -0.848528
C-1.07356 -0.623496 -1.2 -0.318244 -1.2 0
C-1.2 0.318244 -1.07356 0.623496 -0.848528 0.848528
C-0.623496 1.07356 -0.318244 1.2 0 1.2
z
" id="m62b61e6246"/>
     </defs>
     <g>
      <use style="fill:#6c71c4;" x="38.6978026736" xlink:href="#m62b61e6246" y="81.8697372889"/>
      <use style="fill:#6c71c4;" x="47.0978026736" xlink:href="#m62b61e6246" y="81.8697372889"/>
     </g>
    </g>
    <g id="text_18">
     <!-- Longdaysin, {\itshape Bmal1-dLuc} -->
     <defs>
      <path d="
M41.2031 43.7812
C35.5938 46.1875 32.7969 47 29.2969 47
C26.5938 47 24.2031 46.3906 21.7031 45.1094
L12.9062 40.5156
C7.20312 37.5156 3.5 30.2344 3.5 21.75
C3.5 13.7656 6.20312 7.1875 11.0938 3.1875
C14.5 0.296875 19.2031 -1 25.7031 -1
C27.7031 -1 30 -0.59375 30.5 -0.203125
L41.5938 9.10938
L41.0938 -0.109375
C46 -0.109375 47.5938 -0.109375 48.7969 -0.109375
C49.5938 -0.109375 51 -0.109375 53.0938 -0.109375
C53.7969 -0.109375 55.7969 -0.109375 57.9062 -0.109375
L57.9062 3
L53.2969 3
C49.9062 3 49.5938 3.70312 49.5938 10.0469
L49.5938 71.9844
L48.7031 72.7969
C44.2969 71.0938 41 70.2812 33.0938 69.0781
L33.0938 66.2812
L38.7031 66.2812
C40.5 66.2812 41.2031 65.1719 41.2031 62.1562
z

M41.2031 22.25
C41.2031 15.7656 41 14.7812 39.7031 12.4844
C36.9062 7.79688 32 4.71875 27.2969 4.71875
C18.5 4.71875 12.2031 13.1875 12.2031 25.0469
C12.2031 35.9062 17.5938 42.2812 26.5938 42.2812
C30.4062 42.2812 34.4062 40.9844 37.9062 38.5938
C40 37.2031 41.2031 35.9062 41.2031 35.0938
z
" id="URW_Palladio_L_Roman-100"/>
      <path d="
M4.09375 14.3281
C4.09375 7.42188 3.79688 4.40625 3 0.40625
C8.20312 -1.29688 12.0938 -2 16.7031 -2
C29.7969 -2 39.0938 5.01562 39.0938 14.8281
C39.0938 17.9375 38.2031 20.2344 36.2969 22.25
C33.7031 24.75 30.4062 25.9531 21.5938 27.6562
C13.4062 29.2656 10.7031 31.2656 10.7031 35.875
C10.7031 40.875 14.2031 43.6875 20.2969 43.6875
C27 43.6875 32.0938 40.1875 32.0938 35.4688
L32.0938 33.1719
L34.9062 33.1719
C35 38.9844 35.0938 41.375 35.4062 44.4844
C30.0938 46.2969 26.5 47 22.4062 47
C10.7969 47 3.70312 41.4844 3.70312 32.4688
C3.70312 27.6562 5.90625 24.25 10.5 22.1406
C13.2031 20.9375 18.5 19.3438 25.2969 17.8281
C29.7969 16.8281 31.7031 14.7344 31.7031 10.9219
C31.7031 5.51562 26.7031 1.70312 19.5938 1.70312
C12.2969 1.70312 7.09375 5.20312 7.09375 10.2188
L7.09375 14.3281
z
" id="URW_Palladio_L_Roman-115"/>
      <path d="
M29.7031 8.90625
C27.5 12.7188 26.4062 15.0312 24.5938 19.9375
L18.2031 36.7656
C17.5938 38.4688 17.2031 39.9688 17.2031 40.9844
C17.2031 42.375 18.2969 43.1875 20.5938 43.1875
L24.4062 43.1875
L24.4062 46
C14.7031 46 14.7031 46 12.7969 46
C10.9062 46 10.9062 46 1.20312 46
L1.20312 43.3906
L3 43.1875
C5.5 42.8906 6.70312 41.7812 8.20312 38.2969
L19.0938 12.1094
C21.9062 5.3125 22.9062 2.90625 24.7031 -2.09375
L22.4062 -8.1875
C19.2031 -16.5938 15.2969 -21.2812 11.5 -21.2812
C9.90625 -21.2812 8.09375 -20.4844 6.40625 -18.9844
L5.09375 -18.9844
L2.70312 -26.5
C4.59375 -27.5 6.20312 -28 8.09375 -28
C14.7969 -28 19.0938 -24.4062 22.9062 -15.7031
L43.2031 31.0938
C47.2031 40.1875 49.0938 42.8906 51.5938 43.1875
L54.4062 43.3906
L54.4062 46
C46.5 46 46.5 46 44.9062 46
C43.2969 46 43.2969 46 35.4062 46
L35.4062 43.3906
L38 43.1875
C40.7969 42.9844 42.2031 42.0938 42.2031 40.6875
C42.2031 40 42 39.0938 41.5938 38.0938
z
" id="URW_Palladio_L_Roman-121"/>
     </defs>
     <g transform="translate(53.6978026736 83.9697372889)scale(0.06 -0.06)">
      <use transform="scale(0.996264009963)" xlink:href="#URW_Palladio_L_Roman-76"/>
      <use transform="translate(60.871630677 0.0)scale(0.996264009963)" xlink:href="#URW_Palladio_L_Roman-111"/>
      <use transform="translate(115.26721085 0.0)scale(0.996264009963)" xlink:href="#URW_Palladio_L_Roman-110"/>
      <use transform="translate(173.249271531 0.0)scale(0.996264009963)" xlink:href="#URW_Palladio_L_Roman-103"/>
      <use transform="translate(228.640948494 0.0)scale(0.996264009963)" xlink:href="#URW_Palladio_L_Roman-100"/>
      <use transform="translate(289.512579171 0.0)scale(0.996264009963)" xlink:href="#URW_Palladio_L_Roman-97"/>
      <use transform="translate(339.325779669 0.0)scale(0.996264009963)" xlink:href="#URW_Palladio_L_Roman-121"/>
      <use transform="translate(394.717456632 0.0)scale(0.996264009963)" xlink:href="#URW_Palladio_L_Roman-115"/>
      <use transform="translate(436.95892296 0.0)scale(0.996264009963)" xlink:href="#URW_Palladio_L_Roman-105"/>
      <use transform="translate(465.949284422 0.0)scale(0.996264009963)" xlink:href="#URW_Palladio_L_Roman-110"/>
      <use transform="translate(523.931345102 0.0)scale(0.996264009963)" xlink:href="#URW_Palladio_L_Roman-44"/>
      <use transform="translate(573.7445456 0.0)scale(0.996264009963)" xlink:href="#URW_Palladio_L_Italic-66"/>
      <use transform="translate(634.616176277 0.0)scale(0.996264009963)" xlink:href="#URW_Palladio_L_Italic-109"/>
      <use transform="translate(712.124546379 0.0)scale(0.996264009963)" xlink:href="#URW_Palladio_L_Italic-97"/>
      <use transform="translate(756.358115076 0.0)scale(0.996264009963)" xlink:href="#URW_Palladio_L_Italic-108"/>
      <use transform="translate(784.05328468 0.0)scale(0.996264009963)" xlink:href="#URW_Palladio_L_Italic-49"/>
      <use transform="translate(833.866485178 0.0)scale(0.996264009963)" xlink:href="#URW_Palladio_L_Italic-45"/>
      <use transform="translate(867.041714907 0.0)scale(0.996264009963)" xlink:href="#URW_Palladio_L_Italic-100"/>
      <use transform="translate(916.854915405 0.0)scale(0.996264009963)" xlink:href="#URW_Palladio_L_Italic-76"/>
      <use transform="translate(972.246592368 0.0)scale(0.996264009963)" xlink:href="#URW_Palladio_L_Italic-117"/>
      <use transform="translate(1027.63826933 0.0)scale(0.996264009963)" xlink:href="#URW_Palladio_L_Italic-99"/>
     </g>
    </g>
    <g id="line2d_49">
     <path d="
M38.6978 89.0742
L47.0978 89.0742" style="fill:none;stroke:#268bd2;stroke-dasharray:2.000000,2.000000;stroke-dashoffset:0.0;stroke-linecap:round;stroke-width:0.75;"/>
    </g>
    <g id="line2d_50">
     <defs>
      <path d="
M0 1.2
C0.318244 1.2 0.623496 1.07356 0.848528 0.848528
C1.07356 0.623496 1.2 0.318244 1.2 0
C1.2 -0.318244 1.07356 -0.623496 0.848528 -0.848528
C0.623496 -1.07356 0.318244 -1.2 0 -1.2
C-0.318244 -1.2 -0.623496 -1.07356 -0.848528 -0.848528
C-1.07356 -0.623496 -1.2 -0.318244 -1.2 0
C-1.2 0.318244 -1.07356 0.623496 -0.848528 0.848528
C-0.623496 1.07356 -0.318244 1.2 0 1.2
z
" id="mb43f91d1b9"/>
     </defs>
     <g>
      <use style="fill:#268bd2;" x="38.6978026736" xlink:href="#mb43f91d1b9" y="89.0741524946"/>
      <use style="fill:#268bd2;" x="47.0978026736" xlink:href="#mb43f91d1b9" y="89.0741524946"/>
     </g>
    </g>
    <g id="text_19">
     <!-- Longdaysin, {\itshape Per2-dLuc} -->
     <g transform="translate(53.6978026736 91.1741524946)scale(0.06 -0.06)">
      <use transform="scale(0.996264009963)" xlink:href="#URW_Palladio_L_Roman-76"/>
      <use transform="translate(60.871630677 0.0)scale(0.996264009963)" xlink:href="#URW_Palladio_L_Roman-111"/>
      <use transform="translate(115.26721085 0.0)scale(0.996264009963)" xlink:href="#URW_Palladio_L_Roman-110"/>
      <use transform="translate(173.249271531 0.0)scale(0.996264009963)" xlink:href="#URW_Palladio_L_Roman-103"/>
      <use transform="translate(228.640948494 0.0)scale(0.996264009963)" xlink:href="#URW_Palladio_L_Roman-100"/>
      <use transform="translate(289.512579171 0.0)scale(0.996264009963)" xlink:href="#URW_Palladio_L_Roman-97"/>
      <use transform="translate(339.325779669 0.0)scale(0.996264009963)" xlink:href="#URW_Palladio_L_Roman-121"/>
      <use transform="translate(394.717456632 0.0)scale(0.996264009963)" xlink:href="#URW_Palladio_L_Roman-115"/>
      <use transform="translate(436.95892296 0.0)scale(0.996264009963)" xlink:href="#URW_Palladio_L_Roman-105"/>
      <use transform="translate(465.949284422 0.0)scale(0.996264009963)" xlink:href="#URW_Palladio_L_Roman-110"/>
      <use transform="translate(523.931345102 0.0)scale(0.996264009963)" xlink:href="#URW_Palladio_L_Roman-44"/>
      <use transform="translate(573.7445456 0.0)scale(0.996264009963)" xlink:href="#URW_Palladio_L_Italic-80"/>
      <use transform="translate(634.616176277 0.0)scale(0.996264009963)" xlink:href="#URW_Palladio_L_Italic-101"/>
      <use transform="translate(673.369882472 0.0)scale(0.996264009963)" xlink:href="#URW_Palladio_L_Italic-114"/>
      <use transform="translate(712.123588667 0.0)scale(0.996264009963)" xlink:href="#URW_Palladio_L_Italic-50"/>
      <use transform="translate(761.936789165 0.0)scale(0.996264009963)" xlink:href="#URW_Palladio_L_Italic-45"/>
      <use transform="translate(795.112018894 0.0)scale(0.996264009963)" xlink:href="#URW_Palladio_L_Italic-100"/>
      <use transform="translate(844.925219392 0.0)scale(0.996264009963)" xlink:href="#URW_Palladio_L_Italic-76"/>
      <use transform="translate(900.316896355 0.0)scale(0.996264009963)" xlink:href="#URW_Palladio_L_Italic-117"/>
      <use transform="translate(955.708573319 0.0)scale(0.996264009963)" xlink:href="#URW_Palladio_L_Italic-99"/>
     </g>
    </g>
   </g>
  </g>
 </g>
 <defs>
  <clipPath id="p4bfcc20012">
   <rect height="90.6847336648" width="141.942197326" x="31.4978026736" y="7.57505326705"/>
  </clipPath>
 </defs>
</svg>
